<svg xmlns="http://www.w3.org/2000/svg" xmlns:xlink="http://www.w3.org/1999/xlink" viewBox="0 0 400 400"><defs><style>.cls-1{fill:#ec1a2e;}.cls-2{fill:#c4052a;}.cls-3{fill:url(#linear-gradient);}.cls-4{fill:#fff;}.cls-5{fill:url(#linear-gradient-2);}.cls-6,.cls-7{fill:#e9e9e9;}.cls-7{opacity:0.1;}</style><linearGradient id="linear-gradient" x1="190.93" y1="155.29" x2="341.06" y2="155.29" gradientUnits="userSpaceOnUse"><stop offset="0" stop-color="#fff"/><stop offset="1" stop-color="#b3b3b3"/></linearGradient><linearGradient id="linear-gradient-2" x1="58.58" y1="200.76" x2="208.72" y2="200.76" xlink:href="#linear-gradient"/></defs><g id="Layer_2" data-name="Layer 2"><g id="Layer_1-2" data-name="Layer 1"><rect class="cls-1" width="400" height="400"/><polygon class="cls-2" points="400 216.71 400 400 216.33 400 127.63 283.2 183.87 277.82 196.75 240.51 251.83 242.76 326.93 124.34 400 216.71"/><path class="cls-3" d="M280.75,98.66c-21.08-8.28-51.92-35.11-51.92-35.11-48.53,69.4-50.34,157.36-6.11,180.86,47,16.48,105.4-46.7,118.34-131.69C341.06,112.72,301.19,108.57,280.75,98.66ZM254.2,135.37s-5.63,6.73-12.88,8.7c-9.89,2.68-22.56-1.54-25.92-25.89C237.16,136.28,254.2,135.37,254.2,135.37Zm12.3,83c-8.58-10.74-13.9-16.07-25-20.93s-18.46-5.1-31.78-3.95C227.27,173.67,247.22,183,247.22,183h0S267.61,191.34,266.5,218.38Zm11.3-58.33c-3.76-6.79-3.16-15.72-3.16-15.72s11.37,13.35,38.94,16.86C294.7,175.79,282.93,169.31,277.8,160.05Z"/><path class="cls-4" d="M278.75,96.66c-21.08-8.28-51.92-35.11-51.92-35.11-48.53,69.4-50.34,157.36-6.11,180.86,47,16.48,105.4-46.7,118.34-131.69C339.06,110.72,299.19,106.57,278.75,96.66ZM252.2,133.37s-5.63,6.73-12.88,8.7c-9.89,2.68-22.56-1.54-25.92-25.89C235.16,134.28,252.2,133.37,252.2,133.37Zm12.3,83c-8.58-10.74-13.9-16.07-25-20.93s-18.46-5.1-31.78-3.95C225.27,171.67,245.22,181,245.22,181h0S265.61,189.34,264.5,216.38Zm11.3-58.33c-3.76-6.79-3.16-15.72-3.16-15.72s11.37,13.35,38.94,16.86C292.7,173.79,280.93,167.31,275.8,158.05Z"/><path class="cls-5" d="M170.82,109S140,135.85,118.89,144.13C98.45,154,58.58,158.19,58.58,158.19c12.94,85,71.32,148.17,118.34,131.69C221.15,266.38,219.35,178.42,170.82,109Zm13.43,54.63c-3.37,24.35-16,28.58-25.93,25.89-7.25-2-12.87-8.7-12.87-8.7S162.48,181.75,184.25,163.65Zm-98.18,43C113.64,203.15,125,189.8,125,189.8s.61,8.93-3.15,15.72C116.72,214.79,104.94,221.27,86.07,206.66Zm77.32,50.28h0s-21.52,8.18-38.83-12.76c13.93,2,21.67,2.18,33.63-2s17.86-9.21,27.51-19.46C185.3,249.86,163.39,256.94,163.39,256.94Z"/><path class="cls-6" d="M60.11,165.76c1.3,3,1.47,7.24,2.36,10.47,1.92,6.91,4.23,13.71,6.81,20.41,7.28,18.93,16.79,37.2,29.11,53.36a151.51,151.51,0,0,0,20.31,21.82c6.55,5.76,12.91,12.52,21.75,14.54-7.83-10.54-17.76-19-26.68-28.56a196.66,196.66,0,0,1-21.92-28.73C79.17,209.1,69.42,187.45,60.11,165.76Z"/><path class="cls-7" d="M335.38,116.25c-1.3,3-1.47,7.25-2.36,10.47-1.91,6.91-4.23,13.72-6.81,20.41-7.28,18.93-16.79,37.2-29.11,53.36a151,151,0,0,1-20.31,21.82c-6.54,5.77-12.91,12.52-21.75,14.54,7.84-10.54,17.76-19,26.68-28.56a195.43,195.43,0,0,0,21.92-28.73C316.32,159.59,326.07,137.94,335.38,116.25Z"/><path class="cls-4" d="M168.82,109S138,135.85,116.89,144.13C96.45,154,56.58,158.19,56.58,158.19c12.94,85,71.32,148.17,118.34,131.69C219.15,266.38,217.35,178.42,168.82,109Zm13.43,54.63c-3.37,24.35-16,28.58-25.93,25.89-7.25-2-12.87-8.7-12.87-8.7S160.48,181.75,182.25,163.65Zm-98.18,43C111.64,203.15,123,189.8,123,189.8s.61,8.93-3.15,15.72C114.72,214.79,102.94,221.27,84.07,206.66Zm77.32,50.28h0s-21.52,8.18-38.83-12.76c13.93,2,21.67,2.18,33.63-2s17.86-9.21,27.51-19.46C183.3,249.86,161.39,256.94,161.39,256.94Z"/></g></g></svg>