<?xml version="1.0" encoding="utf-8"?>
<!-- Generator: Adobe Illustrator 25.2.3, SVG Export Plug-In . SVG Version: 6.00 Build 0)  -->
<svg version="1.1" id="Layer_1" xmlns="http://www.w3.org/2000/svg" xmlns:xlink="http://www.w3.org/1999/xlink" x="0px" y="0px"
	 viewBox="0 0 573.4 585.8" style="enable-background:new 0 0 573.4 585.8;" xml:space="preserve">
<style type="text/css">
	.st0{fill:#FFFFFF;}
	.st1{fill:#133234;}
	.st2{fill:none;stroke:#FFFFFF;stroke-width:3.5;stroke-linecap:round;stroke-linejoin:round;}
	.st3{fill:#60BFA2;}
	.st4{fill:#24585A;}
	.st5{clip-path:url(#SVGID_2_);}
	.st6{fill:#5FBCA1;}
	.st7{fill:url(#SVGID_3_);}
	.st8{fill:url(#SVGID_4_);}
	.st9{fill:url(#SVGID_5_);}
	.st10{fill:url(#SVGID_6_);}
	.st11{fill:url(#SVGID_7_);}
	.st12{opacity:0.7;fill:url(#SVGID_8_);enable-background:new    ;}
	.st13{fill:#FFFFFF;stroke:#FFFFFF;stroke-width:0.5;stroke-linecap:round;stroke-linejoin:round;}
	.st14{fill:#FFFFFF;stroke:#FFFFFF;stroke-width:0.5;stroke-miterlimit:10;}
</style>
<g>
	<g id="Layer_1_1_">
		
			<rect x="87.4" y="291.4" transform="matrix(1 -1.396295e-03 1.396295e-03 1 -0.4187 0.1752)" class="st0" width="75.6" height="17.1"/>
		<circle class="st0" cx="68.9" cy="294.7" r="57.4"/>
		<circle class="st1" cx="60.1" cy="291.6" r="59.4"/>
		<path class="st2" d="M30.1,275.8c-6,0-10.9,4.9-10.9,11v7.5c0,6,4.9,10.9,10.9,10.9c0,0,0,0,0.1,0"/>
		<path class="st2" d="M29.9,276.2c8.3-7.3,18.9-11.4,29.9-11.3"/>
		<path class="st2" d="M29.9,305.4c8.3,7.3,18.9,11.4,29.9,11.3"/>
		<line class="st2" x1="30.6" y1="276" x2="30.6" y2="305.4"/>
		<path class="st2" d="M90.2,275.8c6,0,10.9,4.9,10.9,10.9c0,0,0,0,0,0v7.5c0,6-4.9,10.9-10.9,10.9c0,0,0,0,0,0"/>
		<path class="st2" d="M90.4,276.2c-8.3-7.3-18.9-11.3-29.9-11.3"/>
		<path class="st2" d="M90.4,305.4c-8.3,7.3-18.9,11.3-29.9,11.3"/>
		<line class="st2" x1="89.6" y1="276" x2="89.6" y2="305.4"/>
		<line class="st2" x1="46.3" y1="280.5" x2="73.9" y2="280.5"/>
		<line class="st2" x1="46.3" y1="290.8" x2="73.9" y2="290.8"/>
		<line class="st2" x1="46.3" y1="301" x2="73.9" y2="301"/>
		
			<rect x="151.3" y="386" transform="matrix(0.7639 -0.6453 0.6453 0.7639 -209.9615 215.2084)" class="st0" width="75.6" height="17.1"/>
		<circle class="st0" cx="127.6" cy="449.9" r="57.4"/>
		<path class="st3" d="M164.4,414.9c22,23.3,20.8,60-2.5,82c-23.3,22-60,20.8-82-2.5s-20.8-60,2.5-82c10.8-10.1,25-15.8,39.7-15.8
			C138.1,396.6,153.4,403.2,164.4,414.9"/>
		
			<rect x="171.3" y="155.3" transform="matrix(0.7543 -0.6566 0.6566 0.7543 -82.5863 165.5011)" class="st0" width="17.1" height="75.6"/>
		<circle class="st0" cx="133.9" cy="142.5" r="57.4"/>
		<path class="st3" d="M171.5,93.5c23.7,25.2,22.5,64.8-2.6,88.5s-64.8,22.5-88.5-2.6s-22.5-64.8,2.6-88.5c11.6-10.9,27-17,42.9-17
			C143.1,73.8,159.6,80.9,171.5,93.5"/>
		
			<rect x="374.3" y="168.6" transform="matrix(0.6211 -0.7837 0.7837 0.6211 17.3146 390.0356)" class="st0" width="75.6" height="17.1"/>
		<circle class="st0" cx="441.5" cy="142.5" r="57.4"/>
		<path class="st1" d="M492.5,93.4c23.4,24.9,22.3,64.1-2.6,87.5c-24.9,23.5-64.1,22.3-87.5-2.6s-22.3-64.1,2.6-87.5
			c11.5-10.8,26.7-16.8,42.5-16.8C464.5,73.9,480.8,81,492.5,93.4"/>
		
			<rect x="400.2" y="382.9" transform="matrix(0.6518 -0.7584 0.7584 0.6518 -176.7578 456.4917)" class="st0" width="17.1" height="75.6"/>
		<circle class="st0" cx="444.1" cy="451" r="57.4"/>
		<path class="st4" d="M487.6,415.1c20.6,21.9,19.5,56.3-2.4,76.9c-21.9,20.6-56.3,19.5-76.9-2.4s-19.5-56.3,2.4-76.9
			c10.1-9.5,23.4-14.8,37.2-14.8C463,398,477.3,404.2,487.6,415.1"/>
		<rect x="279.5" y="420.5" class="st0" width="17.1" height="75.6"/>
		
			<ellipse transform="matrix(7.088903e-02 -0.9975 0.9975 7.088903e-02 -249.548 769.1279)" class="st0" cx="288.1" cy="518.5" rx="57.4" ry="57.4"/>
		<path class="st1" d="M332.2,485.6c22.3,23.7,21.2,61-2.5,83.3c-23.7,22.3-61,21.2-83.3-2.5c-22.3-23.7-21.2-61,2.5-83.3
			c10.9-10.3,25.4-16,40.4-16C305.6,467,321.1,473.7,332.2,485.6"/>
		<path class="st0" d="M219.3,401.5c6.2,0,12.2-2.5,16.6-6.9c2.8-3,2.7-7.8-0.4-10.6c-2.9-2.7-7.3-2.7-10.2,0
			c-3.1,3.5-8.5,3.9-12,0.8c-3.5-3.1-3.9-8.5-0.8-12c0.2-0.3,0.5-0.5,0.8-0.8c3-2.8,3.2-7.6,0.4-10.6s-7.6-3.2-10.6-0.4
			c-0.1,0.1-0.3,0.2-0.4,0.4c-9.2,9.2-9.2,24.1,0,33.3C207.1,399.1,213.1,401.6,219.3,401.5L219.3,401.5z"/>
		<path class="st0" d="M256.2,251.6L256.2,251.6c4.2,0,7.6-3.4,7.6-7.6c0-4.2-3.4-7.5-7.6-7.5c-4.2,0-7.5,3.4-7.5,7.6
			C248.7,248.2,252,251.5,256.2,251.6z"/>
		<path class="st0" d="M256.3,347.8c4.2,0,7.5-3.4,7.5-7.6c0-4.2-3.4-7.5-7.6-7.5c-4.2,0-7.5,3.4-7.5,7.6
			C248.7,344.4,252,347.7,256.3,347.8L256.3,347.8z"/>
		<path class="st0" d="M344.8,244.1c0,4.1,3.4,7.5,7.5,7.5h0.1c4.1,0,7.5-3.4,7.4-7.6s-3.4-7.5-7.6-7.4
			C348.1,236.6,344.8,240,344.8,244.1z"/>
		<path class="st0" d="M193.2,345.7c1,0,2-0.2,2.9-0.6h0.1c3.8-1.6,5.6-6,4-9.8c0,0,0,0,0,0c-1.6-3.8-6-5.7-9.8-4.1
			c-3.8,1.6-5.7,6-4.1,9.8C187.4,343.9,190.1,345.7,193.2,345.7L193.2,345.7z"/>
		<path class="st0" d="M347.4,396.4c-3.9,1.5-5.8,5.8-4.4,9.7c1.5,3.9,5.8,5.8,9.7,4.4c0.1-0.1,0.3-0.1,0.4-0.2h0.1
			c3.9-1.5,5.8-5.8,4.3-9.7c-1.5-3.9-5.8-5.8-9.7-4.3C347.7,396.2,347.6,396.3,347.4,396.4L347.4,396.4z"/>
		<path class="st0" d="M352.3,332.8c-4.1,0-7.5,3.4-7.5,7.5s3.4,7.5,7.5,7.5h0.1c4.1,0,7.5-3.4,7.5-7.5
			C359.8,336.1,356.4,332.7,352.3,332.8z"/>
		<path class="st0" d="M186.3,243.3c-1.6,3.8,0.2,8.2,4,9.8c3.8,1.6,8.2-0.2,9.8-4V249c1.6-3.8-0.3-8.2-4.1-9.8
			C192.2,237.6,187.8,239.5,186.3,243.3L186.3,243.3L186.3,243.3z"/>
		<rect x="280.6" y="104.7" class="st0" width="17.1" height="75.6"/>
		<circle class="st0" cx="288.9" cy="76.5" r="57.4"/>
		<path class="st4" d="M335.3,21c24,25.5,22.9,65.6-2.6,89.6c-25.5,24-65.6,22.9-89.6-2.6s-22.9-65.6,2.6-89.6
			c11.8-11.1,27.3-17.3,43.5-17.3C306.6,1.1,323.3,8.3,335.3,21"/>
		<g>
			<defs>
				<circle id="SVGID_1_" cx="289.1" cy="64.7" r="63.6"/>
			</defs>
			<clipPath id="SVGID_2_">
				<use xlink:href="#SVGID_1_"  style="overflow:visible;"/>
			</clipPath>
			<g class="st5">
				<rect x="274" y="62.2" class="st2" width="29.9" height="29.9"/>
				<circle class="st2" cx="288.9" cy="77.2" r="9.3"/>
				<polyline class="st2" points="289,73 289,76.9 293.1,76.9 				"/>
				<polyline class="st2" points="279.9,61 279.9,50.8 297.9,50.8 297.9,61 				"/>
				<line class="st2" x1="284.3" y1="48.9" x2="288.9" y2="11.8"/>
				<line class="st2" x1="293.6" y1="48.9" x2="288.9" y2="11.8"/>
				<polyline class="st2" points="279.9,93.5 279.9,157.9 297.9,157.9 297.9,93.5 				"/>
				<line class="st2" x1="285.7" y1="99.1" x2="285.7" y2="112.8"/>
				<line class="st2" x1="292.1" y1="99.1" x2="292.1" y2="112.8"/>
				<line class="st2" x1="285.7" y1="118.8" x2="285.7" y2="132.5"/>
				<line class="st2" x1="292.1" y1="118.8" x2="292.1" y2="132.5"/>
				<line class="st2" x1="285.7" y1="138.4" x2="285.7" y2="152.2"/>
				<line class="st2" x1="292.1" y1="138.4" x2="292.1" y2="152.2"/>
			</g>
		</g>
		<path class="st0" d="M353.2,174.1c-3.8-1.6-8.2,0.2-9.8,4.1s0.2,8.2,4.1,9.8c3.8,1.6,8.2-0.2,9.8-4.1c0,0,0,0,0,0v-0.1
			C358.8,180.1,357,175.7,353.2,174.1C353.2,174.1,353.2,174.1,353.2,174.1L353.2,174.1z"/>
		
			<rect x="419.2" y="290.8" transform="matrix(1 -4.537878e-03 4.537878e-03 1 -1.3535 2.0769)" class="st0" width="75.6" height="17.1"/>
		<circle class="st0" cx="505.5" cy="297.4" r="57.4"/>
		
			<ellipse transform="matrix(0.7071 -0.7071 0.7071 0.7071 -59.786 450.091)" class="st6" cx="513.4" cy="297.2" rx="58.8" ry="58.8"/>
		<path class="st2" d="M516.7,309.2v-41.4c-0.2-4.8-4.2-8.6-9-8.4c-4.6,0.2-8.3,3.8-8.4,8.4v41.4c-7.1,4.8-8.9,14.5-4.1,21.6
			c4.8,7.1,14.5,8.9,21.6,4.1c7.1-4.8,8.9-14.5,4.1-21.6C519.7,311.6,518.3,310.3,516.7,309.2z"/>
		
			<ellipse transform="matrix(0.1602 -0.9871 0.9871 0.1602 108.5573 771.9538)" class="st0" cx="507.9" cy="322.2" rx="5.8" ry="5.8"/>
		<line class="st2" x1="507.9" y1="320.2" x2="507.9" y2="268.4"/>
		<path class="st2" d="M524.3,273.3c6.8,0,12.4,5.5,12.4,12.4s-5.5,12.4-12.4,12.4"/>
		<line class="st2" x1="524.1" y1="267.3" x2="524.1" y2="263.4"/>
		<line class="st2" x1="524.1" y1="308" x2="524.1" y2="304.1"/>
		<line class="st2" x1="546.6" y1="285.7" x2="542.7" y2="285.7"/>
		<line class="st2" x1="539.5" y1="269.6" x2="536.7" y2="272.4"/>
		<line class="st2" x1="540" y1="301.1" x2="537.2" y2="298.4"/>
		<path class="st0" d="M412.5,239.2c-3.8,1.6-5.6,6-4,9.8c1.2,2.8,3.9,4.6,6.9,4.6c1,0,2-0.2,2.9-0.6h0.1c3.8-1.7,5.5-6.1,3.8-9.9
			C420.5,239.5,416.2,237.8,412.5,239.2L412.5,239.2z"/>
		
			<radialGradient id="SVGID_3_" cx="819.46" cy="190.89" r="0.5" gradientTransform="matrix(1 0 0 -1 0 588)" gradientUnits="userSpaceOnUse">
			<stop  offset="0" style="stop-color:#346864"/>
			<stop  offset="1" style="stop-color:#1E3C3D"/>
		</radialGradient>
		<circle class="st7" cx="287.8" cy="299.2" r="151.1"/>
		
			<radialGradient id="SVGID_4_" cx="276.81" cy="640.22" r="352.8" gradientTransform="matrix(1 0 0 1 24.94 -400.09)" gradientUnits="userSpaceOnUse">
			<stop  offset="0" style="stop-color:#41A680"/>
			<stop  offset="1" style="stop-color:#42A981"/>
		</radialGradient>
		<path class="st8" d="M435.7,268c-13.8-65.2-68.6-113.6-134.9-119.4l-30.6,23.7l-8.5-20l15.2,1.9c0.2-1.9,0.2-3.9-0.2-5.8
			c-18.5,1.4-36.7,6.2-53.5,14.1c4.7,1.6,7.6,6.2,7,11.1l-1.3,10.6l17.7-4.2c0.9,4-1.6,8-5.6,8.9c-0.1,0-0.1,0-0.2,0l-14.2,2.8
			c-1.4,10.7-11.2,18.3-21.9,17l-4-0.5l1.2-9.7c-4.7-0.6-9,2.7-9.6,7.4l-0.2,1.2l-2.5-0.3c-9.7-1.2-18.5,5.6-19.7,15.3c0,0,0,0,0,0
			l-10.9-1.2l-0.1,0.8c-0.8,6.5,3.8,12.4,10.3,13.2c-0.6,4.4-4.6,7.5-9,7l-11.7-1.5c-1.5,3.5-2.8,7-4,10.6c0.4,0.2,0.9,0.3,1.4,0.3
			c-1,7.8,4.6,15,12.4,15.9c0,0,0,0,0,0c3.6,0.4,6.8-2.1,7.2-5.6l0.8-6c7.2,0.9,13.7-4.2,14.6-11.3l0.2-1.3l13,1.6
			c-0.9,7.3,4.2,13.9,11.5,14.8c0,0,0,0,0,0l4,0.5l-0.7,5.7l-2.5,0.3c-3.1,0.4-5.2,3.1-4.9,6.2c0,0.2,0.1,0.4,0.1,0.6l14.3-2.8
			l2.8-22c3.6,0.5,6.3,3.7,6,7.3l-0.6,8.3c-0.4,5.8,2.2,11.5,6.8,15l2,1.5l5.9-9.1c6.4,7,16.1,10.1,25.4,8l2.1-0.5l1.5,6.4
			c1.3,5.6-2.1,11.2-7.7,12.6l-10.4,2.5L228.3,284c-7.4,6-17.6,7-26,2.5l-8.7-4.7l2.3-13.8l-56.8,5.9c-0.1,2.4-0.6,4.8-1.4,7
			c-3.5,28.5,1.2,57.4,13.6,83.4c1.8,0,3.6,0,5.4-0.2l9.9-1l3.8,8.9c5.3,0,9.5,4.3,9.5,9.6c0,0,0,0,0,0.1l-0.2,15.7l6.9,5.2
			l1.9,10.7c19.5,16.9,42.9,28.6,68.2,34l5.5-4.3l4.2-33l38.8-30.1c2.5-1.9,3-5.5,1-8c-0.9-1.2-2.3-2-3.8-2.2l-9.6-1.2
			c-8.1-1-15-6.5-17.8-14.1l-14-37.7c-2-5.3,0.6-11.3,5.9-13.5l17.2,41.9l-1.4,10.9c5.3,4,12.6,4.5,18.4,1.1l35.5-20.5l-1-1.3
			c-5.8-7.9-16.9-9.7-24.8-4l-4.9-6.3c-5.5-7.1-4.2-17.4,2.9-22.9l4.8,6.1c8.4,10.8,21.8,16.6,35.4,15.3l14.1,18.2l9.9,1.2
			l-1.7,13.3l8.4,10.8l-2.9,22.8c9.1,1.1,17.4-5.3,18.5-14.4l1.5-12.2c7.9,1,15.1-4.6,16.1-12.5l0.6-4.6l13.7,1.7l-0.4,2.9
			c-0.3,2.3-0.2,4.7,0.4,7C439.1,329.4,442.1,298.1,435.7,268z"/>
		
			<radialGradient id="SVGID_5_" cx="182.23" cy="81.85" r="38.04" gradientTransform="matrix(1 0 0 -1 0 588)" gradientUnits="userSpaceOnUse">
			<stop  offset="0" style="stop-color:#41A680"/>
			<stop  offset="1" style="stop-color:#42A981"/>
		</radialGradient>
		<path class="st9" d="M218.5,183.6l2.5-20c-10.9,5.4-21.1,12-30.4,19.9c4,1.2,8.3,1,12.1-0.6l0.9-0.4l-1.8,14.1
			C209.9,197.6,217.4,191.8,218.5,183.6z"/>
		
			<radialGradient id="SVGID_6_" cx="282.65" cy="285.46" r="134.98" gradientTransform="matrix(1 0 0 -1 0 588)" gradientUnits="userSpaceOnUse">
			<stop  offset="0" style="stop-color:#41A680"/>
			<stop  offset="1" style="stop-color:#42A981"/>
		</radialGradient>
		<path class="st10" d="M282.8,447.5c-3.4-1.3-7.3-0.4-9.8,2.2c7,0.7,14,0.9,21,0.6c0.8-3.7,0.5-7.5-0.7-11L282.8,447.5z"/>
		
			<radialGradient id="SVGID_7_" cx="291.27" cy="136.37" r="454.3" gradientTransform="matrix(1 0 0 -1 0 588)" gradientUnits="userSpaceOnUse">
			<stop  offset="0" style="stop-color:#41A680"/>
			<stop  offset="1" style="stop-color:#42A981"/>
		</radialGradient>
		<path class="st11" d="M385,395.8l2.4,3.1c2.3,2.9,6.4,3.4,9.3,1.2c0,0,0,0,0,0l-3.7-4.7l2.8-2.2c2-1.6,2.4-4.5,0.8-6.6L385,395.8z
			"/>
		
			<radialGradient id="SVGID_8_" cx="287.75" cy="288.83" r="150.9201" gradientTransform="matrix(1 0 0 -1 0 588)" gradientUnits="userSpaceOnUse">
			<stop  offset="0.34" style="stop-color:#FFFFFF"/>
			<stop  offset="1" style="stop-color:#42A981"/>
		</radialGradient>
		<ellipse class="st12" cx="287.8" cy="299.2" rx="150.8" ry="151.1"/>
		<polyline class="st2" points="471,440.6 442.6,468.9 430.4,456.7 458.8,428.4 		"/>
		<line class="st2" x1="456.4" y1="424.6" x2="474.7" y2="442.9"/>
		<line class="st2" x1="470.1" y1="418.4" x2="480.9" y2="429.3"/>
		<line class="st2" x1="463.1" y1="430.6" x2="472" y2="421.7"/>
		<line class="st2" x1="468.7" y1="436.3" x2="477.7" y2="427.3"/>
		<polyline class="st2" points="438.8,465.5 433.3,471 428.3,466 433.8,460.6 		"/>
		<line class="st2" x1="430.3" y1="469.1" x2="419.4" y2="479.9"/>
		<line class="st2" x1="461.2" y1="441.1" x2="465.2" y2="445.2"/>
		<line class="st2" x1="455.6" y1="446.7" x2="459.7" y2="450.7"/>
		<line class="st2" x1="450.1" y1="452.3" x2="454.1" y2="456.3"/>
		<line class="st2" x1="444.5" y1="457.9" x2="448.5" y2="461.9"/>
		<path class="st13" d="M275.7,492.4c-18.6,7.5-27.6,28.7-20,47.3c7.5,18.6,28.7,27.6,47.3,20s27.6-28.7,20-47.3
			c-5.5-13.7-18.9-22.7-33.6-22.7C284.7,489.7,280.1,490.6,275.7,492.4z M262.2,541.2c-1.7-1.1-3.4-2.4-4.8-3.8
			c-2.2-6.1-2.5-12.7-1.1-19c0.7-1.3,1.5-2.6,2.3-3.8c0.3-0.4,0.5-0.8,0.8-1.2l8.2,4.8v0.2c0,4.4,0.4,8.7,1.3,13c0,0,0,0,0,0
			l-6.3,9.9L262.2,541.2z M286.5,558c1.4,0.7,2.8,1.3,4.3,1.8c-6.4,0.3-12.8-1.3-18.4-4.5l13.7,2.4L286.5,558z M286.5,555.5
			l-16.2-2.9c-1.9-2.3-3.6-4.7-5-7.3c-0.4-0.7-0.8-1.3-1.1-2l6.3-9.9l0.5,0.1c3.9,1,8,1.8,12,2.4l0.6,0.1l7.6,13.1
			c-1.3,1.8-2.6,3.7-4,5.5C286.9,554.9,286.7,555.2,286.5,555.5L286.5,555.5z M313.3,549.9c-1.3,1.3-2.6,2.4-4.1,3.5
			c-0.2-1.9-0.6-3.7-1.2-5.6l8.1-15.1c2.2-1,4.4-2.2,6.4-3.6c0.2-0.2,0.5-0.4,0.6-0.6C322.5,536.6,319,544.2,313.3,549.9
			L313.3,549.9z M313,530.3l0.9,1.7l-7.9,14.6h-0.1c-4.2,0.8-8.5,1.2-12.8,1.2l-7.8-13.5c1.2-2.2,2.4-4.5,3.6-6.8
			c0.8-1.5,1.6-3.1,2.4-4.6l16.1-1.7C309.5,524.2,311.3,527.2,313,530.3z M309.7,513c-0.8,2-1.6,4-2.4,6l-15.7,1.6
			c-0.2-0.2-0.4-0.5-0.6-0.7c-1.9-2.1-3.7-4.2-5.6-6.3l0-0.1l-2.3-2.2l4.4-13.2c0.3-0.1,0.6-0.1,0.9-0.2c2.4-0.2,4.8-0.5,7.1-0.6
			c1.5-0.1,2.9-0.1,4.4,0l10.8,12.2C310.5,510.7,310.1,511.9,309.7,513z M313.3,502c2.9,2.9,5.3,6.3,6.9,10c-2-1.4-4.2-2.5-6.5-3.5
			c-0.4-0.1-0.7-0.3-1.1-0.4l-10.7-12c0.1-0.5,0.1-1,0.1-1.6C306.4,496.3,310.1,498.8,313.3,502z M278.5,494L278.5,494
			c2.5,0.9,4.8,2.1,6.8,3.6l-4.1,12.3h-0.1c-0.8,0.3-1.7,0.6-2.5,1c-3.4,1.5-6.7,3.3-9.8,5.3l-8.1-4.8c0-0.2,0.1-0.5,0.1-0.7
			c0.5-1.5,1.1-2.9,1.7-4.3c0.5-1.1,1-2.1,1.6-3.2c0.4-0.4,0.8-0.9,1.2-1.3c3.7-3.7,8.2-6.5,13.2-8.2L278.5,494z"/>
		<path class="st14" d="M149.2,427.5c-14.9-14.9-39.2-14.9-54.1,0s-14.9,39.2,0,54.1c0.8,0.8,1.7,1.6,2.5,2.3l-0.9,3.2
			c-0.6,2.4,0.8,4.8,3.2,5.5c0.4,0.1,0.8,0.2,1.2,0.2c2,0,3.8-1.4,4.3-3.3l0.1-0.5c10.5,5.1,22.7,5.1,33.2,0l0.1,0.5
			c0.3,1.1,1.1,2.1,2.1,2.7c0.7,0.4,1.4,0.6,2.2,0.6c0.4,0,0.8-0.1,1.2-0.1c2.4-0.6,3.8-3.1,3.2-5.5l-0.9-3.3
			c8.7-7.3,13.7-18,13.7-29.4C160.4,444.4,156.4,434.7,149.2,427.5L149.2,427.5z M100.7,489.8c-0.4-0.1-0.7-0.4-0.9-0.7
			c-0.2-0.3-0.3-0.7-0.2-1.1l6.2-23.1c0.1-0.4,0.4-0.7,0.7-0.9c0.2-0.1,0.5-0.2,0.8-0.2c0.1,0,0.3,0,0.4,0l0,0
			c0.8,0.2,1.3,1,1.1,1.8l-6.2,23.1C102.3,489.5,101.5,490,100.7,489.8C100.7,489.8,100.7,489.8,100.7,489.8z M115.1,453.4l-0.4,1.5
			c-0.2,0.8-1,1.3-1.8,1.1c0,0,0,0,0,0l-2.9-0.8l0,0l-2.9-0.8c-0.8-0.2-1.3-1-1.1-1.8l0.4-1.5L115.1,453.4z M122.2,489.8
			c-5.5,0-10.9-1.3-15.8-3.7l1.8-6.8c8.7,4.9,19.3,4.9,28,0l1.8,6.8C133.1,488.5,127.6,489.8,122.2,489.8z M135.3,470.3
			c-0.4,0.1-0.8,0-1.1-0.2c-0.3-0.2-0.6-0.5-0.7-0.9l-4.6-17.3c-0.9-3.4,0.7-7,3.9-8.6l6.9,25.8L135.3,470.3z M143.6,489.8
			c-0.8,0.2-1.6-0.3-1.8-1.1l-4.2-15.9l2.9-0.8l4.3,15.9C144.9,488.7,144.4,489.5,143.6,489.8z M145.8,480.7l-2.1-7.7
			c10.2-11.9,8.9-29.8-3-40c-3.3-2.9-7.3-4.9-11.5-6c-0.8-0.2-1.6,0.3-1.8,1.1c-0.2,0.8,0.3,1.6,1.1,1.8
			c13.6,3.5,21.8,17.3,18.3,30.9c-0.8,3.1-2.1,5.9-4,8.5l-7.6-28.3c-0.2-0.8-1-1.3-1.8-1.1c0,0,0,0,0,0c-5.6,1.5-8.9,7.2-7.4,12.8
			l4.6,17.2c0.5,1.8,2.1,3.2,4,3.3l0.8,2.9c-8.1,4.9-18.3,4.9-26.4,0l2.7-9.9c0.3-1.1,0.1-2.4-0.5-3.4c-0.3-0.6-0.8-1.1-1.3-1.5
			l0.8-3.1l1.4,0.4c2.4,0.6,4.8-0.8,5.5-3.2l0.8-2.9l0,0l2.3-8.6c0.2-0.8-0.4-1.6-1.2-1.7c-0.7-0.1-1.4,0.3-1.7,1l-1.9,7.2l-2.9-0.8
			l1.9-7.2c0.2-0.8-0.4-1.6-1.2-1.8c-0.7-0.1-1.5,0.3-1.7,1l-1.9,7.3l-2.9-0.8l1.9-7.2c0.2-0.8-0.3-1.6-1.1-1.8
			c-0.8-0.2-1.6,0.3-1.8,1.1l-2.3,8.6l0,0l0,0l-0.8,2.9c-0.6,2.4,0.8,4.8,3.2,5.5l1.4,0.4l-0.8,3.1c-1.9,0.1-3.5,1.5-4,3.3l-1.4,5.3
			c-8.2-11.4-5.6-27.3,5.8-35.5c2.6-1.8,5.4-3.2,8.5-4c0.8-0.2,1.3-1,1.1-1.8c-0.2-0.8-1-1.3-1.8-1.1c-15.2,3.9-24.4,19.4-20.5,34.5
			c1.1,4.2,3.1,8.1,5.9,11.4l-2.1,7.7C84,467.6,82.9,445.3,96,430.9s35.4-15.5,49.8-2.5c14.4,13.1,15.5,35.4,2.5,49.8
			C147.5,479.1,146.7,479.9,145.8,480.7L145.8,480.7z"/>
		<path class="st14" d="M122.2,426.2L122.2,426.2c-0.8,0-1.5,0.7-1.5,1.5c0,0.8,0.7,1.5,1.5,1.5c0.8,0,1.5-0.7,1.5-1.5l0,0
			C123.6,426.8,123,426.2,122.2,426.2z"/>
		<path class="st0" d="M113.3,113.6c5,0,9-4,9-9s-4-9-9-9s-9,4-9,9S108.4,113.6,113.3,113.6z M113.3,99.9c2.6,0,4.7,2.1,4.7,4.7
			c0,2.6-2.1,4.7-4.7,4.7c-2.6,0-4.7-2.1-4.7-4.7C108.6,102,110.7,99.9,113.3,99.9z M139.2,113.6c5,0,9-4,9-9s-4-9-9-9s-9,4-9,9
			S134.2,113.6,139.2,113.6z M139.2,99.9c2.6,0,4.7,2.1,4.7,4.7s-2.1,4.7-4.7,4.7c-2.6,0-4.7-2.1-4.7-4.7v0
			C134.5,102,136.6,99.9,139.2,99.9z M141.4,119.8c0,0,0,0.1,0,0.1c0,0,0,0.1,0,0.1c0,0,0,0.1,0,0.1v15.2l2.4,1.5
			c0.5-1.1,1.8-1.5,2.9-1c0.8,0.4,1.2,1.1,1.2,2v2.8c0,0.8-0.4,1.5-1.1,1.9c-0.3,0.2-0.6,0.3-1,0.3c-0.4,0-0.8-0.1-1.1-0.3l-2.6-2
			V173c0,1.2-1,2.2-2.2,2.2H134c-1.2,0-2.2-1-2.2-2.2s1-2.2,2.2-2.2c0,0,0,0,0,0h3.7v-33l-22.3-13.7v2.6l1.4,5.1l2.2-1.4
			c1-0.7,2.3-0.4,3,0.5s0.4,2.3-0.5,3c-0.1,0-0.1,0.1-0.2,0.1l-3.2,2l3.6,12.5c0,0,0,0,0,0.1c0,0,0,0.1,0,0.1c0,0,0,0.1,0,0.1
			s0,0.1,0,0.1c0,0,0,0.1,0,0.1v0.1c0,0,0,0.1,0,0.1v0.1c0,0.1,0,0.1,0,0.1s0,0.1,0,0.1c0,0,0,0.1,0,0.1v0.1v0.1c0,0,0,0.1,0,0.1
			v0.1l-0.1,0.1c0,0,0,0,0,0.1l-0.1,0.1l-0.1,0.1l-0.1,0.1l-0.1,0.1v0.1c0,0-0.1,0.1-0.1,0.1l0,0l-0.1,0.1l0,0l-0.1,0.1l-0.1,0.1
			h-0.1l-0.1,0.1h-0.1h-0.1h-0.1h-0.2h-0.1h-0.2h-4.7v19.4h3.7c1.2,0,2.2,1,2.2,2.2c0,1.2-1,2.2-2.2,2.2h-5.9c-1.2,0-2.2-1-2.2-2.2
			l0,0v-23.5l0,0c0-1,0.6-1.8,1.5-2.1c0.2-0.1,0.4-0.1,0.6-0.1h4l-2.4-8.6l-6.3,3.9c-0.3,0.2-0.7,0.3-1.1,0.3
			c-0.4,0-0.7-0.1-1.1-0.3c-0.7-0.4-1.1-1.1-1.1-1.9v-2.8c0-1.2,0.9-2.2,2.1-2.2c0.8,0,1.6,0.5,2,1.2l4.3-2.7l-1.9-6.6
			c-0.2-0.1-0.4-0.3-0.5-0.6v-6.8l0,0V120c0,0,0-0.1,0-0.1c0,0,0-0.1,0-0.1s0-0.1,0-0.1v-0.1v-0.1v-0.1c0,0,0-0.1,0-0.1v-0.1
			l0.1-0.1l0,0l0,0c0,0,0-0.1,0.1-0.1l0.1-0.1l0.1-0.1l0.1-0.1l0.1-0.1l0.1-0.1l0.1-0.1l0.1-0.1h0.1l0.1-0.1h0.1h0.1h0.1h0.1h0.1
			h0.1h0.1h0.6h0.1h0.1h0.1h0.1h0.1h0.1c0,0,0.1,0,0.1,0l0.1,0.1l0,0l23.3,14.4v-8.7l-3.6,2.2c-1,0.6-2.4,0.3-3-0.7
			c-0.6-1-0.3-2.4,0.7-3l6.9-4.3l0,0l0.1-0.1h0.1h0.1h0.1h0.1h0.1h0.1h0.1h0.6h0.1h0.1h0.1h0.1h0.1h0.1l0.1,0.1h0.1h0.1l0.1,0.1
			l0.1,0.1l0.1,0.1l0.1,0.1l0.1,0.1l0.1,0.1l0.1,0.1c0,0,0,0.1,0.1,0.1l0,0l0,0l0.1,0.1v0.1c0,0,0,0.1,0.1,0.1c0,0,0,0.1,0,0.1v0.1
			 M107.6,150.6L98,162.6l1.4,5.9c0.3,1.2-0.4,2.3-1.6,2.6c0,0,0,0,0,0c-0.2,0-0.3,0.1-0.5,0.1c-1,0-1.9-0.7-2.1-1.7l-1.7-6.9l0,0
			v-0.1c0,0,0-0.1,0-0.1s0-0.1,0-0.1c0,0,0-0.1,0-0.1c0,0,0-0.1,0-0.1v-0.1c0,0,0-0.1,0-0.1s0-0.1,0-0.1c0,0,0-0.1,0-0.1
			c0,0,0-0.1,0-0.1c0,0,0-0.1,0-0.1v-0.1v-0.1c0,0,0-0.1,0-0.1c0,0,0-0.1,0-0.1l0.1-0.1v-0.1l0.1-0.1l0,0L104,148
			c0.8-0.9,2.2-1,3.1-0.2c0.9,0.7,1,2,0.3,2.9L107.6,150.6z M155.4,173.2L155.4,173.2c-0.1,0.5-0.3,0.9-0.6,1.3l0,0l-0.1,0.1l0,0
			c0,0-0.1,0.1-0.1,0.1c0,0,0,0-0.1,0l-0.1,0.1h-0.1L154,175l0,0l-0.2,0.1l0,0l-0.2,0.1h-0.1h-0.2h-6.1c-1.2,0-2.2-1-2.2-2.2
			s1-2.2,2.2-2.2c0,0,0,0,0,0h3.1l-6.1-20.9c-0.4-1.1,0.2-2.4,1.3-2.8c1.1-0.4,2.4,0.2,2.8,1.3c0,0.1,0.1,0.2,0.1,0.2l6.9,23.6
			c0.1,0.2,0.1,0.3,0.1,0.5l0,0c0,0,0,0.1,0,0.1v0.1C155.4,173.1,155.4,173.2,155.4,173.2L155.4,173.2z"/>
		<path class="st14" d="M464.4,105c-2.5,1.9-3.1,2.9-11.9,11.6l-5.2-0.9l2.4-2.4c1.7-1.7,1.7-4.4,0-6.1c-1.7-1.7-4.4-1.7-6.1,0
			l-6.8,6.8l-23.8-3.9c-2.6-0.4-5.1,1.4-5.6,4c-0.3,1.8,0.5,3.6,1.9,4.7l23.7,17.2l-4.4,4.4c-1.8,1.9-3.4,4-4.8,6.2l-11.1-3.2
			c-2.5-0.7-5,0.7-5.8,3.2c-0.5,1.9,0.2,4,1.8,5.1l9.1,6.3c-1.6,3.5-2.5,6-2.6,6.1c-0.3,0.7,0.1,1.6,0.8,1.9c0.3,0.1,0.7,0.1,1,0
			c0.1,0,2.6-1,6.1-2.6l6.3,9.1c1.5,2.1,4.3,2.7,6.5,1.2c1.7-1.2,2.4-3.3,1.8-5.2l-3.2-11c2.2-1.4,4.3-3,6.2-4.8l4.4-4.4l17.2,23.7
			c1.6,2.2,4.6,2.7,6.8,1.1c1.5-1.1,2.2-2.9,1.9-4.7l-3.9-23.8l6.8-6.8c1.7-1.7,1.7-4.4,0-6.1s-4.4-1.7-6.1,0l-2.4,2.4l-0.9-5.2
			c8.7-8.8,9.6-9.4,11.5-11.9l0,0c4.4-5.8,5.5-11.6,2.6-14.4S470.1,100.5,464.4,105z M445.6,109.2c0.4-0.7,1.3-0.8,2-0.4
			s0.8,1.3,0.4,2c-0.1,0.2-0.2,0.3-0.4,0.4l-3.9,3.9l-3.5-0.6L445.6,109.2z M411.1,116.5c-0.9-0.7-1-1.9-0.3-2.8
			c0.4-0.5,1.1-0.8,1.8-0.7l37.5,6l-14.9,14.9L411.1,116.5z M410.2,146.6c0.5-0.5,1.1-0.6,1.8-0.4l10.3,3c-1.1,1.9-2.1,3.9-3.2,6.1
			l-8.6-6c-0.8-0.6-1-1.7-0.5-2.5C410.1,146.7,410.2,146.6,410.2,146.6L410.2,146.6z M434.6,171c-0.7,0.7-1.8,0.7-2.5,0
			c-0.1-0.1-0.1-0.2-0.2-0.2l-6-8.7c2.2-1.1,4.3-2.1,6.1-3.2l3,10.3C435.2,169.9,435.1,170.5,434.6,171L434.6,171z M470,133.6
			c0.7-0.4,1.6-0.3,2,0.4c0.3,0.5,0.3,1.1,0,1.6l-5.3,5.4l-0.6-3.5L470,133.6z M468.3,168.7c0.1,1.1-0.7,2.1-1.8,2.2
			c-0.7,0.1-1.4-0.2-1.8-0.7l-17.4-24.1l14.9-14.9L468.3,168.7z M438.8,150.6c-2.1,2-4.4,3.7-6.9,5.1c-4.1,2.4-8.3,4.5-12.6,6.3
			c1.8-4.4,4-8.7,6.4-12.8c1.4-2.4,3-4.6,4.9-6.7c35.1-35,33-33.2,35.2-34.9c3.8-0.5,7.4,2.1,7.9,6c0.1,0.6,0.1,1.3,0,1.9
			C472,117.5,473.8,115.5,438.8,150.6L438.8,150.6z M476.2,111.6c-0.9-3.2-3.4-5.7-6.6-6.6c2.1-1.1,5.6-2.2,7.2-0.6
			C478.1,105.7,477.8,108.5,476.2,111.6L476.2,111.6z"/>
	</g>
</g>
</svg>
