<svg xmlns="http://www.w3.org/2000/svg" xmlns:xlink="http://www.w3.org/1999/xlink" viewBox="0 0 573.39 585.76"><defs><style>.cls-1,.cls-5{fill:none;}.cls-2{isolation:isolate;}.cls-16,.cls-17,.cls-3{fill:#fff;}.cls-4{fill:#133234;}.cls-16,.cls-17,.cls-5{stroke:#fff;}.cls-16,.cls-5{stroke-linecap:round;stroke-linejoin:round;}.cls-5{stroke-width:3.5px;}.cls-6{fill:#60bfa2;}.cls-7{fill:#24585a;}.cls-8{clip-path:url(#clip-path);}.cls-9{fill:#5fbca1;}.cls-10{fill:url(#radial-gradient);}.cls-11{fill:url(#radial-gradient-2);}.cls-12{fill:url(#radial-gradient-3);}.cls-13{fill:url(#radial-gradient-4);}.cls-14{fill:url(#radial-gradient-5);}.cls-15{opacity:0.7;mix-blend-mode:overlay;fill:url(#radial-gradient-6);}.cls-16,.cls-17{stroke-width:0.5px;}.cls-17{stroke-miterlimit:10;}</style><clipPath id="clip-path"><circle class="cls-1" cx="289.09" cy="64.69" r="63.61"/></clipPath><radialGradient id="radial-gradient" cx="819.46" cy="397.11" r="0.5" gradientUnits="userSpaceOnUse"><stop offset="0" stop-color="#346864"/><stop offset="1" stop-color="#1e3c3d"/></radialGradient><radialGradient id="radial-gradient-2" cx="276.81" cy="439.78" r="352.8" gradientTransform="matrix(1, 0, 0, -1, 24.94, 679.91)" gradientUnits="userSpaceOnUse"><stop offset="0" stop-color="#41a680"/><stop offset="1" stop-color="#42a981"/></radialGradient><radialGradient id="radial-gradient-3" cx="182.23" cy="506.15" r="38.04" xlink:href="#radial-gradient-2"/><radialGradient id="radial-gradient-4" cx="282.65" cy="302.54" r="134.98" xlink:href="#radial-gradient-2"/><radialGradient id="radial-gradient-5" cx="291.27" cy="451.63" r="454.3" xlink:href="#radial-gradient-2"/><radialGradient id="radial-gradient-6" cx="287.75" cy="299.17" r="150.92" gradientUnits="userSpaceOnUse"><stop offset="0.34" stop-color="#fff"/><stop offset="1" stop-color="#42a981"/></radialGradient></defs><g class="cls-2"><g id="Layer_1" data-name="Layer 1"><rect class="cls-3" x="116.72" y="262.08" width="17.06" height="75.64" transform="translate(-174.47 425.59) rotate(-90.08)"/><circle class="cls-3" cx="68.86" cy="294.7" r="57.39"/><circle class="cls-4" cx="60.11" cy="291.57" r="59.35" transform="translate(-236.46 317.55) rotate(-83.36)"/><path class="cls-5" d="M30.08,275.8a11,11,0,0,0-10.95,10.95v7.45a10.94,10.94,0,0,0,11,10.94"/><path class="cls-5" d="M29.88,276.16a45,45,0,0,1,29.94-11.33"/><path class="cls-5" d="M29.88,305.38a45,45,0,0,0,29.94,11.33"/><line class="cls-5" x1="30.62" y1="275.96" x2="30.62" y2="305.38"/><path class="cls-5" d="M90.16,275.8a10.94,10.94,0,0,1,10.94,10.95v7.45a10.94,10.94,0,0,1-10.94,10.94"/><path class="cls-5" d="M90.36,276.16a45.07,45.07,0,0,0-29.94-11.33"/><path class="cls-5" d="M90.36,305.38a45.07,45.07,0,0,1-29.94,11.33"/><line class="cls-5" x1="89.62" y1="275.96" x2="89.62" y2="305.38"/><line class="cls-5" x1="46.31" y1="280.53" x2="73.93" y2="280.53"/><line class="cls-5" x1="46.31" y1="290.77" x2="73.93" y2="290.77"/><line class="cls-5" x1="46.31" y1="301" x2="73.93" y2="301"/><rect class="cls-3" x="180.61" y="356.74" width="17.06" height="75.64" transform="translate(9.79 793.66) rotate(-130.19)"/><circle class="cls-3" cx="127.64" cy="449.89" r="57.39"/><path class="cls-6" d="M164.39,414.9a58,58,0,1,1-42.25-18.25,57.85,57.85,0,0,1,42.25,18.25"/><rect class="cls-3" x="171.27" y="155.26" width="17.06" height="75.64" transform="translate(-82.59 165.5) rotate(-41.04)"/><circle class="cls-3" cx="133.88" cy="142.54" r="57.39"/><path class="cls-6" d="M171.46,93.51a62.62,62.62,0,1,1-45.58-19.68,62.43,62.43,0,0,1,45.58,19.68"/><rect class="cls-3" x="403.57" y="139.27" width="17.06" height="75.64" transform="translate(199.11 -217.65) rotate(38.4)"/><circle class="cls-3" cx="441.45" cy="142.47" r="57.39"/><path class="cls-4" d="M492.47,93.4a61.93,61.93,0,1,1-45.09-19.47A61.73,61.73,0,0,1,492.47,93.4"/><rect class="cls-3" x="400.24" y="382.88" width="17.06" height="75.64" transform="translate(994.27 384.98) rotate(130.68)"/><circle class="cls-3" cx="444.15" cy="450.97" r="57.39"/><path class="cls-7" d="M487.61,415.12A54.37,54.37,0,1,1,448,398a54.19,54.19,0,0,1,39.57,17.09"/><rect class="cls-3" x="279.46" y="420.53" width="17.06" height="75.64"/><circle class="cls-3" cx="288.09" cy="518.52" r="57.39"/><path class="cls-4" d="M332.24,485.59a58.9,58.9,0,1,1-42.88-18.53,58.66,58.66,0,0,1,42.88,18.53"/><path class="cls-3" d="M219.32,401.51a23.35,23.35,0,0,0,16.62-6.89,7.5,7.5,0,0,0-10.6-10.6,8.52,8.52,0,1,1-12.05-12,7.5,7.5,0,1,0-10.6-10.6,23.52,23.52,0,0,0,16.63,40.14Z"/><path class="cls-3" d="M256.18,251.57h.08a7.54,7.54,0,1,0-.08,0Z"/><path class="cls-3" d="M256.26,347.77a7.54,7.54,0,1,0-.08,0Z"/><path class="cls-3" d="M344.8,244.07a7.5,7.5,0,0,0,7.5,7.5h.08a7.5,7.5,0,1,0-7.58-7.5Z"/><path class="cls-3" d="M193.2,345.7a7.49,7.49,0,0,0,2.87-.57l.07,0a7.47,7.47,0,0,0,4-9.79,7.52,7.52,0,1,0-7,10.39Z"/><path class="cls-3" d="M347.43,396.35a7.5,7.5,0,1,0,5.74,13.85l.07,0a7.5,7.5,0,1,0-5.81-13.82Z"/><path class="cls-3" d="M352.3,332.77a7.5,7.5,0,1,0,0,15h.08a7.5,7.5,0,0,0-.08-15Z"/><path class="cls-3" d="M186.29,243.31a7.5,7.5,0,1,0,13.85,5.76l0-.07a7.5,7.5,0,0,0-13.88-5.69Z"/><rect class="cls-3" x="280.58" y="104.66" width="17.06" height="75.64"/><circle class="cls-3" cx="288.89" cy="76.52" r="57.39"/><path class="cls-7" d="M335.27,21A63.41,63.41,0,1,1,289.1,1.1,63.2,63.2,0,0,1,335.27,21"/><g class="cls-8"><rect class="cls-5" x="273.96" y="62.2" width="29.92" height="29.92"/><circle class="cls-5" cx="288.92" cy="77.16" r="9.31"/><polyline class="cls-5" points="289.02 72.96 289.02 76.91 293.1 76.91"/><polyline class="cls-5" points="279.93 61.04 279.93 50.77 297.91 50.77 297.91 61.04"/><line class="cls-5" x1="284.29" y1="48.9" x2="288.93" y2="11.83"/><line class="cls-5" x1="293.56" y1="48.9" x2="288.92" y2="11.83"/><polyline class="cls-5" points="279.93 93.53 279.93 157.9 297.91 157.9 297.91 93.53"/><line class="cls-5" x1="285.7" y1="99.07" x2="285.7" y2="112.78"/><line class="cls-5" x1="292.15" y1="99.07" x2="292.15" y2="112.78"/><line class="cls-5" x1="285.7" y1="118.76" x2="285.7" y2="132.47"/><line class="cls-5" x1="292.15" y1="118.76" x2="292.15" y2="132.47"/><line class="cls-5" x1="285.7" y1="138.45" x2="285.7" y2="152.16"/><line class="cls-5" x1="292.15" y1="138.45" x2="292.15" y2="152.16"/></g><path class="cls-3" d="M353.18,174.14a7.53,7.53,0,1,0,4.08,9.82l0-.07a7.47,7.47,0,0,0-4.11-9.75Z"/><rect class="cls-3" x="448.45" y="261.49" width="17.06" height="75.64" transform="translate(754.23 -159.02) rotate(89.74)"/><circle class="cls-3" cx="505.53" cy="297.37" r="57.39"/><circle class="cls-9" cx="513.41" cy="297.21" r="58.77" transform="translate(-59.78 450.09) rotate(-45)"/><path class="cls-5" d="M516.68,309.16v-41.4a8.75,8.75,0,0,0-17.49,0v41.4a15.54,15.54,0,1,0,17.49,0Z"/><circle class="cls-3" cx="507.94" cy="322.18" r="5.84"/><line class="cls-5" x1="507.94" y1="320.2" x2="507.94" y2="268.4"/><path class="cls-5" d="M524.27,273.28a12.38,12.38,0,0,1,0,24.76"/><line class="cls-5" x1="524.14" y1="267.34" x2="524.14" y2="263.43"/><line class="cls-5" x1="524.14" y1="307.98" x2="524.14" y2="304.07"/><line class="cls-5" x1="546.62" y1="285.66" x2="542.71" y2="285.66"/><line class="cls-5" x1="539.49" y1="269.62" x2="536.73" y2="272.39"/><line class="cls-5" x1="539.98" y1="301.14" x2="537.22" y2="298.37"/><path class="cls-3" d="M412.49,239.25a7.5,7.5,0,0,0,2.89,14.42,7.34,7.34,0,0,0,2.88-.58l.08,0a7.5,7.5,0,0,0-5.85-13.81Z"/><circle class="cls-10" cx="287.75" cy="299.23" r="151.13"/><path class="cls-11" d="M435.67,268a151.26,151.26,0,0,0-134.92-119.4l-30.59,23.74-8.53-20,15.16,1.91a18.85,18.85,0,0,0-.16-5.82,152.31,152.31,0,0,0-53.5,14.08,10.38,10.38,0,0,1,7,11.15l-1.33,10.59,17.67-4.17a7.45,7.45,0,0,1-5.85,8.94l-14.23,2.77a19.61,19.61,0,0,1-21.9,17l-4-.51,1.23-9.73a8.56,8.56,0,0,0-9.56,7.42l-.16,1.24-2.48-.31a17.68,17.68,0,0,0-19.75,15.34L158.92,221l-.09.76A11.91,11.91,0,0,0,169.16,235a8.07,8.07,0,0,1-9,7l-11.71-1.48q-2.19,5.2-4,10.58a6.76,6.76,0,0,0,1.36.33,14.27,14.27,0,0,0,12.38,15.94,6.49,6.49,0,0,0,7.25-5.62l.75-6a13.09,13.09,0,0,0,14.61-11.34l.16-1.33,13,1.63a13.26,13.26,0,0,0,11.5,14.82l4,.5-.72,5.73-2.51.3a5.57,5.57,0,0,0-4.77,6.77L215.72,270,218.49,248a6.92,6.92,0,0,1,6,7.34l-.59,8.32a17.38,17.38,0,0,0,6.82,15l2,1.49,5.92-9.1a26.55,26.55,0,0,0,25.42,8l2.11-.47,1.52,6.42a10.48,10.48,0,0,1-7.74,12.6l-10.44,2.52-21.18-16.07a23.43,23.43,0,0,1-26,2.48l-8.69-4.69L195.92,268l-56.84,5.92a23.19,23.19,0,0,1-1.43,7,152.1,152.1,0,0,0,13.55,83.4,49.76,49.76,0,0,0,5.45-.22l9.85-1,3.82,8.91a9.53,9.53,0,0,1,9.48,9.63l-.17,15.67,6.9,5.23,1.85,10.74a151.77,151.77,0,0,0,68.19,34l5.52-4.28,4.16-33.05L305,379.84a5.73,5.73,0,0,0-2.8-10.22l-9.61-1.21a21.93,21.93,0,0,1-17.82-14.13l-14-37.66a10.63,10.63,0,0,1,5.85-13.51L283.87,345l-1.37,10.87A16.64,16.64,0,0,0,300.89,357l35.5-20.52-1-1.31a17.8,17.8,0,0,0-24.82-4l-4.88-6.28a16.32,16.32,0,0,1,2.88-22.89l4.77,6.14a40.11,40.11,0,0,0,35.4,15.34l14.13,18.2,9.87,1.25-1.68,13.3,8.38,10.79-2.87,22.75a16.59,16.59,0,0,0,18.53-14.38l1.53-12.16a14.43,14.43,0,0,0,16.11-12.5l.57-4.58,13.74,1.73-.36,2.86a18.9,18.9,0,0,0,.42,7A150.54,150.54,0,0,0,435.67,268Z"/><path class="cls-12" d="M218.46,183.61l2.52-20a150.17,150.17,0,0,0-30.44,19.86,17.81,17.81,0,0,0,12.1-.62l.87-.37-1.78,14.12A15,15,0,0,0,218.46,183.61Z"/><path class="cls-13" d="M282.81,447.54a9.09,9.09,0,0,0-9.76,2.25,148.29,148.29,0,0,0,21,.56,21.11,21.11,0,0,0-.66-11Z"/><path class="cls-14" d="M385,395.82l2.42,3.11a6.66,6.66,0,0,0,9.35,1.18l-3.67-4.73,2.79-2.16a4.69,4.69,0,0,0,.83-6.58Z"/><ellipse class="cls-15" cx="287.75" cy="299.17" rx="150.77" ry="151.07"/><polyline class="cls-5" points="470.95 440.58 442.61 468.91 430.41 456.71 458.75 428.38"/><line class="cls-5" x1="456.38" y1="424.63" x2="474.7" y2="442.94"/><line class="cls-5" x1="470.07" y1="418.39" x2="480.94" y2="429.26"/><line class="cls-5" x1="463.07" y1="430.59" x2="471.99" y2="421.67"/><line class="cls-5" x1="468.73" y1="436.26" x2="477.66" y2="427.33"/><polyline class="cls-5" points="438.77 465.55 433.31 471 428.33 466.01 433.78 460.56"/><line class="cls-5" x1="430.26" y1="469.06" x2="419.4" y2="479.93"/><line class="cls-5" x1="461.24" y1="441.14" x2="465.25" y2="445.16"/><line class="cls-5" x1="455.65" y1="446.73" x2="459.66" y2="450.74"/><line class="cls-5" x1="450.06" y1="452.31" x2="454.08" y2="456.33"/><line class="cls-5" x1="444.48" y1="457.9" x2="448.49" y2="461.91"/><path class="cls-16" d="M275.74,492.4a36.3,36.3,0,1,0,13.62-2.65A35.81,35.81,0,0,0,275.74,492.4Zm-13.52,48.77a24.56,24.56,0,0,1-4.78-3.84,34.12,34.12,0,0,1-1.1-19,30.61,30.61,0,0,1,2.32-3.84c.27-.38.52-.78.81-1.15l8.16,4.84v.2a62.89,62.89,0,0,0,1.32,13,.09.09,0,0,0,0,.05l-6.34,9.93ZM286.5,558a31.1,31.1,0,0,0,4.34,1.82,34,34,0,0,1-18.36-4.45l13.69,2.44Zm-.05-2.47-16.16-2.88a50.93,50.93,0,0,1-5.05-7.32c-.37-.66-.79-1.3-1.1-2l6.33-9.92.47.12a104.65,104.65,0,0,0,12,2.4l.6.08,7.59,13.11c-1.32,1.85-2.65,3.69-4,5.51C286.94,554.91,286.7,555.2,286.45,555.49Zm26.87-5.59a32.53,32.53,0,0,1-4.08,3.48,31,31,0,0,0-1.22-5.56l8.09-15.1a37.4,37.4,0,0,0,6.38-3.59,2.91,2.91,0,0,0,.64-.62A33.66,33.66,0,0,1,313.32,549.9ZM313,530.32l.9,1.74L306,546.64l-.13,0a71.21,71.21,0,0,1-12.78,1.23l-7.8-13.49c1.21-2.25,2.42-4.52,3.61-6.78q1.21-2.31,2.4-4.63l16.14-1.65A90.31,90.31,0,0,1,313,530.32ZM309.69,513c-.77,2-1.59,4-2.4,6l-15.73,1.61c-.19-.24-.38-.49-.59-.72-1.85-2.1-3.72-4.19-5.59-6.29l.05-.06-2.26-2.25,4.38-13.19a7,7,0,0,1,.91-.18c2.38-.24,4.76-.51,7.15-.65a34.29,34.29,0,0,1,4.42,0l10.83,12.21C310.49,510.69,310.12,511.87,309.69,513ZM313.32,502a33.73,33.73,0,0,1,6.94,10,34.33,34.33,0,0,0-6.46-3.47c-.36-.15-.72-.28-1.09-.41l-10.66-12c.07-.52.11-1,.13-1.57A33.78,33.78,0,0,1,313.32,502Zm-34.81-8,.08.07a27,27,0,0,1,6.75,3.55l-4.09,12.32-.07,0c-.83.34-1.69.65-2.51,1a72,72,0,0,0-9.82,5.3l-8.07-4.78a2.25,2.25,0,0,1,.14-.73c.54-1.45,1.07-2.9,1.69-4.31a32.35,32.35,0,0,1,1.59-3.17c.39-.43.78-.85,1.19-1.26a33.8,33.8,0,0,1,13.19-8.16Z"/><path class="cls-17" d="M149.19,427.5a38.25,38.25,0,1,0-51.57,56.4l-.87,3.25a4.49,4.49,0,0,0,3.17,5.49,4.16,4.16,0,0,0,1.16.16,4.49,4.49,0,0,0,4.33-3.32l.12-.47a38.27,38.27,0,0,0,33.23,0l.13.48a4.41,4.41,0,0,0,2.09,2.71,4.45,4.45,0,0,0,2.23.61,4.56,4.56,0,0,0,1.16-.15,4.49,4.49,0,0,0,3.17-5.49l-.87-3.26a38.27,38.27,0,0,0,13.73-29.35,38,38,0,0,0-11.21-27.05Zm-48.5,62.26a1.47,1.47,0,0,1-.9-.7,1.5,1.5,0,0,1-.16-1.13l6.19-23.09a1.46,1.46,0,0,1,.7-.91,1.53,1.53,0,0,1,.75-.2,1.58,1.58,0,0,1,.38,0h0a1.5,1.5,0,0,1,1.06,1.83l-6.19,23.09A1.49,1.49,0,0,1,100.69,489.76Zm14.39-36.37-.39,1.45a1.49,1.49,0,0,1-1.83,1.05l-2.89-.77h0l-2.88-.77a1.5,1.5,0,0,1-1.06-1.83l.39-1.45Zm7.07,36.42a35.37,35.37,0,0,1-15.83-3.74l1.83-6.82a28.35,28.35,0,0,0,28,0l1.83,6.82A35.34,35.34,0,0,1,122.15,489.81Zm13.15-19.48a1.5,1.5,0,0,1-1.13-.16,1.47,1.47,0,0,1-.7-.9L128.83,452a7.53,7.53,0,0,1,3.88-8.62l6.92,25.84Zm8.3,19.43a1.5,1.5,0,0,1-1.83-1.06l-4.25-15.87,2.88-.78,4.26,15.88a1.5,1.5,0,0,1-1.06,1.83Zm2.21-9.07L143.74,473A28.38,28.38,0,0,0,129.19,427a1.49,1.49,0,1,0-.74,2.89,25.41,25.41,0,0,1,14.33,39.43L135.17,441a1.49,1.49,0,0,0-1.83-1.06,10.48,10.48,0,0,0-7.4,12.81L130.58,470a4.5,4.5,0,0,0,4,3.31l.78,2.9a25.38,25.38,0,0,1-26.39,0l2.65-9.87a4.5,4.5,0,0,0-.46-3.4,4.34,4.34,0,0,0-1.34-1.45l.84-3.14,1.45.39a4.49,4.49,0,0,0,5.49-3.17l.77-2.88h0l2.32-8.65a1.5,1.5,0,0,0-2.89-.77l-1.93,7.22-2.89-.78,1.94-7.21a1.5,1.5,0,0,0-2.89-.78L110.08,449l-2.89-.77,1.93-7.22a1.49,1.49,0,1,0-2.88-.77l-2.32,8.64v0h0l-.77,2.87a4.49,4.49,0,0,0,3.17,5.49l1.45.39-.84,3.13a4.5,4.5,0,0,0-4,3.31l-1.42,5.3a25.41,25.41,0,0,1,14.32-39.43,1.49,1.49,0,1,0-.74-2.89A28.39,28.39,0,0,0,100.55,473l-2.07,7.71a35.26,35.26,0,1,1,47.33,0Z"/><path class="cls-17" d="M122.15,426.16h0a1.49,1.49,0,1,0,1.49,1.49A1.49,1.49,0,0,0,122.15,426.16Z"/><path class="cls-3" d="M113.33,113.64a9,9,0,1,0-9-9A9,9,0,0,0,113.33,113.64Zm0-13.74a4.7,4.7,0,1,1-4.71,4.7A4.71,4.71,0,0,1,113.33,99.9Zm25.87,13.74a9,9,0,1,0-9-9A9,9,0,0,0,139.2,113.64Zm0-13.74a4.7,4.7,0,1,1-4.7,4.7A4.71,4.71,0,0,1,139.2,99.9ZM142,140.46V173a2.17,2.17,0,0,1-2.16,2.17H134a2.17,2.17,0,1,1,0-4.34h3.69v-33l-22.27-13.74v2.64l1.45,5.11,2.19-1.35a2.17,2.17,0,1,1,2.27,3.69l-3.23,2,3.55,12.54a.13.13,0,0,1,0,.06.61.61,0,0,1,0,.13s0,.07,0,.1,0,.07,0,.11a.57.57,0,0,1,0,.13v.08a.76.76,0,0,1,0,.15v.07c0,.05,0,.09,0,.13s0,.06,0,.09a.36.36,0,0,1,0,.1l0,.11,0,.08a1.17,1.17,0,0,1,0,.11l0,.07-.06.12a.43.43,0,0,1,0,.07l-.07.11-.06.09-.06.07-.09.1,0,.05a.52.52,0,0,1-.11.1l0,0-.12.09,0,0-.11.06-.08.05-.09,0-.11.05-.08,0-.12,0h-.06l-.21,0h-.08l-.23,0h-4.68v19.37h3.69a2.17,2.17,0,0,1,0,4.34h-5.86a2.18,2.18,0,0,1-2.17-2.17h0V149.28h0a2.17,2.17,0,0,1,1.53-2.07,2.25,2.25,0,0,1,.64-.09h4l-2.44-8.61-6.35,3.92a2.13,2.13,0,0,1-1.14.33,2.24,2.24,0,0,1-1.06-.28,2.18,2.18,0,0,1-1.11-1.89V137.8a2.17,2.17,0,0,1,4.11-1l4.32-2.66-1.86-6.59A2,2,0,0,1,111,127v-6.82a.43.43,0,0,1,0,0V120a.28.28,0,0,0,0-.09s0-.08,0-.12,0-.07,0-.1l0-.11,0-.1,0-.09a1.17,1.17,0,0,1,0-.11l0-.08.06-.12,0,0s0,0,0,0a.36.36,0,0,1,.07-.1l.06-.08.06-.08.08-.09.06-.06.1-.08.06-.05.1-.08.08,0,.1-.06.09,0,.09,0,.11,0,.08,0,.12,0,.09,0,.11,0h.63l.12,0,.09,0,.11,0,.11,0,.09,0,.11,0a.2.2,0,0,1,.08,0l.12.06,0,0,23.3,14.38v-8.65l-3.59,2.21a2.16,2.16,0,1,1-2.28-3.68l6.9-4.26,0,0,.11-.06.08,0,.12,0,.09,0,.1,0,.11,0,.09,0,.13,0h.63l.11,0,.08,0,.12,0,.08,0,.12,0,.08,0,.1.06.09,0,.08,0,.1.08.07.05.09.08.06.06.08.09.07.08.06.08a.86.86,0,0,1,.07.1s0,0,0,0,0,0,0,0l.07.12,0,.08a.37.37,0,0,1,.05.11.36.36,0,0,0,0,.09l0,.11a339240057906.65,339240057906.65,0,0,0,0,.2.5.5,0,0,1,0,.12.28.28,0,0,1,0,.09.53.53,0,0,1,0,.13v15.25l2.38,1.47a2.16,2.16,0,0,1,4.1,1v2.78a2.16,2.16,0,0,1-1.11,1.89,2.2,2.2,0,0,1-1,.28,2.13,2.13,0,0,1-1.14-.33Zm-34.39,10.18L98,162.56l1.4,5.9a2.16,2.16,0,0,1-1.6,2.61,2.22,2.22,0,0,1-.51.06,2.16,2.16,0,0,1-2.1-1.66l-1.66-6.95v0l0-.12s0-.06,0-.09,0-.07,0-.11a.41.41,0,0,0,0-.11s0-.06,0-.09v-.12s0-.06,0-.09,0-.08,0-.12a.29.29,0,0,1,0-.09s0-.07,0-.11a.42.42,0,0,1,0-.1l0-.1,0-.1a.36.36,0,0,0,0-.09.41.41,0,0,0,0-.09l.06-.1,0-.07.08-.11,0,0,10.31-12.75a2.17,2.17,0,0,1,3.37,2.73Zm47.76,22.59h0a2.13,2.13,0,0,1-.62,1.28l0,0-.14.12,0,0a.5.5,0,0,1-.12.08.1.1,0,0,1-.05,0l-.13.07-.05,0L154,175h0l-.16.06h0l-.23.05h-.08l-.22,0h-6.07a2.17,2.17,0,1,1,0-4.34h3.13l-6.09-20.93a2.17,2.17,0,1,1,4.16-1.21l6.88,23.64a2,2,0,0,1,.1.49v0a.61.61,0,0,1,0,.14v.08C155.36,173.12,155.36,173.17,155.35,173.23Z"/><path class="cls-17" d="M464.39,105c-2.46,1.91-3.14,2.9-11.89,11.56l-5.24-.86,2.4-2.4a4.31,4.31,0,1,0-6.1-6.1l-6.8,6.8L413,110.07a4.85,4.85,0,0,0-3.62,8.72L433.06,136l-4.44,4.44a35.87,35.87,0,0,0-4.76,6.22l-11.06-3.25a4.65,4.65,0,0,0-3.95,8.28l9.06,6.28c-1.58,3.48-2.54,6-2.58,6.11a1.44,1.44,0,0,0,1.85,1.86c.12,0,2.64-1,6.12-2.59l6.27,9.07a4.65,4.65,0,0,0,8.28-4l-3.25-11a36.37,36.37,0,0,0,6.22-4.77l4.44-4.43,17.16,23.69a4.85,4.85,0,0,0,8.72-3.62l-3.87-23.78,6.8-6.8a4.31,4.31,0,0,0-6.1-6.1L465.56,134l-.86-5.25c8.67-8.76,9.64-9.42,11.55-11.88h0c4.44-5.75,5.47-11.56,2.58-14.45S470.14,100.52,464.39,105Zm-18.79,4.23a1.44,1.44,0,1,1,2,2l-3.87,3.87-3.5-.56Zm-34.55,7.28a2,2,0,0,1,1.47-3.55L450,119l-14.88,14.88Zm-.81,30.11a1.77,1.77,0,0,1,1.75-.45l10.34,3c-1.06,1.85-2.12,3.9-3.19,6.11l-8.65-6A1.77,1.77,0,0,1,410.24,146.57Zm24.4,24.4a1.77,1.77,0,0,1-2.71-.24l-6-8.66c2.22-1.06,4.26-2.13,6.11-3.19l3,10.34A1.77,1.77,0,0,1,434.64,171ZM470,133.58a1.44,1.44,0,0,1,2,2L466.7,141l-.57-3.5Zm-1.7,35.11a2,2,0,0,1-3.55,1.48L447.32,146.1l14.88-14.88Zm-29.51-18.13a36.48,36.48,0,0,1-6.88,5.08,107.43,107.43,0,0,1-12.62,6.28,106.06,106.06,0,0,1,6.42-12.84,36,36,0,0,1,4.94-6.66c35.13-35,33.05-33.23,35.18-34.93a7,7,0,0,1,7.9,7.89C472,117.52,473.8,115.46,438.79,150.56Zm37.4-39a9.47,9.47,0,0,0-6.58-6.57c2.08-1.06,5.58-2.24,7.2-.63C478.08,105.68,477.77,108.49,476.19,111.6Z"/></g></g></svg>