<svg xmlns="http://www.w3.org/2000/svg" width="350" height="34" viewBox="0 0 1058 81" fill="none"><path fill-rule="evenodd" clip-rule="evenodd" d="M88.952 12.7l2.262.457c5.29 1.071 6.004 4.212 6.004 7.142v36.926c0 3.041-.727 6.001-6.004 7.068l-2.262.458v1.176h26.272v-1.176l-2.262-.458c-5.272-1.067-5.997-4.027-5.997-7.068V20.3c0-2.93.714-6.07 5.997-7.142l2.262-.456v-1.176H88.952v1.176zM624.323 11.525v18.31h1.109l2.719-6.778c2.665-6.667 5.445-10.28 12.519-10.28h2.933v44.45c0 2.88-.68 6.293-5.987 7.143l-2.283.363v1.192h26.275v-1.192l-2.279-.364c-5.302-.849-5.98-4.262-5.98-7.141v-44.45h2.931c7.071 0 9.854 3.612 12.524 10.28l2.706 6.778h1.116v-18.31h-48.303zM600.834 12.724l2.137.282c4.008.581 7.731 2.546 7.807 12.877l.22 24.79-21.095-24.924c-6.314-7.494-8.877-10.644-10.741-13.997l-.125-.227h-19.285v1.178l.359.07c3.971.722 6.448 2.335 10.618 6.903l.806.866v28.502c0 12.222-3.834 14.175-8.465 15.332l-1.556.387v1.162h21.605v-1.162l-1.552-.384c-4.126-1.081-8.395-2.201-8.472-15.337l-.217-27.089 38.157 44.962.132.153h1.176v-41.19c0-10.345 3.948-12.312 7.805-12.872l2.14-.282v-1.199h-21.454v1.199zM379.573 56.168c-3.631 6.197-8.069 8.5-16.379 8.5h-2.295c-4.617 0-6.677-2.245-6.677-7.283V38.558l3.38.067c8.296.153 10.57.521 13.135 8.492l.936 2.902h1.139V25.668h-1.142l-.933 2.988c-2.507 7.94-4.971 8.336-13.137 8.486l-3.378.067V12.78h5.837c9.759 0 14.158 2.026 17.439 8.036l3.721 6.723h1.079V11.525h-46.09v1.173l2.262.456c5.001 1.014 6.006 3.398 6.006 6.913v37.158c0 2.884-.681 6.297-5.987 7.145l-2.281.363v1.194h48.157V49.914h-1.067l-3.725 6.254zM551.854 56.168c-3.623 6.197-8.059 8.5-16.371 8.5h-2.297c-4.617 0-6.678-2.245-6.678-7.283V38.558l3.381.067c8.296.153 10.574.521 13.128 8.492l.947 2.902h1.13V25.668h-1.133l-.944 2.988c-2.501 7.94-4.964 8.336-13.128 8.486l-3.381.067V12.78h5.837c9.755 0 14.154 2.026 17.44 8.036l3.72 6.723h1.075V11.525h-46.085v1.173l2.266.456c4.992 1.014 5.999 3.398 5.999 6.913v37.158c0 2.884-.68 6.297-5.98 7.145l-2.285.363v1.194h48.157V49.914h-1.067l-3.731 6.254zM196.318 57.156V12.779h6.907c13.762 0 21.982 9.702 21.982 25.948 0 16.485-7.761 25.941-21.295 25.941h-1.678c-4.909 0-5.916-3.002-5.916-7.512zm9.206-45.628h-48.563v1.196l2.133.282c4.901.71 7.749 2.794 7.812 11.343l.227 26.325-21.102-24.925c-6.173-7.32-8.871-10.637-10.735-13.997l-.127-.225h-19.292v1.178l.362.068c3.966.724 6.448 2.337 10.625 6.905l.803.864v28.505c0 12.22-3.839 14.17-8.472 15.332l-1.553.384v1.162h21.602v-1.162l-1.551-.384c-4.124-1.081-8.386-2.199-8.467-15.337l-.223-27.089 38.294 45.115h1.169V23.122c0-6.864 3.05-10.342 9.056-10.342 6.006 0 9.051 3.478 9.051 10.342v34.106c0 3.175-.734 6.241-6.069 7.142l-2.195.367v1.188h27.215c9.403 0 17.284-2.898 22.797-8.376 4.967-4.936 7.703-11.703 7.703-19.056 0-7.315-2.739-14-7.708-18.824-5.485-5.327-13.369-8.142-22.792-8.142zM467.827 57.156V12.779h6.91c13.76 0 21.977 9.702 21.977 25.948 0 16.485-7.759 25.941-21.29 25.941h-1.688c-4.901 0-5.909-3.002-5.909-7.512zm9.202-45.628h-48.556v1.196l2.133.282c4.894.708 7.74 2.791 7.814 11.343l.22 26.325-21.105-24.925c-6.316-7.5-8.877-10.65-10.736-13.997l-.125-.225h-19.282v1.178l.356.068c3.969.724 6.451 2.337 10.623 6.903l.799.866v28.505c0 12.221-3.834 14.175-8.465 15.332l-1.556.384v1.162h21.612v-1.162l-1.552-.384c-4.133-1.081-8.398-2.199-8.469-15.337l-.227-27.089 38.166 44.962.132.153h1.167V23.122c0-6.864 3.047-10.342 9.056-10.342 6.003 0 9.048 3.478 9.048 10.342v34.106c0 3.177-.734 6.241-6.059 7.142l-2.204.367v1.188h27.21c9.405 0 17.289-2.898 22.802-8.376 4.966-4.936 7.7-11.703 7.7-19.056 0-7.313-2.734-13.999-7.703-18.824-5.49-5.327-13.369-8.142-22.799-8.142zM314.078 11.525H290.54v1.171l2.259.458c5.275 1.07 6.002 4.03 6.002 7.064v37.01c0 3.038-.727 5.998-6.002 7.063l-2.259.458v1.176h27.263V64.75l-1.799-.377c-6.205-1.289-7.377-2.545-7.377-7.912V12.777h2.316c8.397 0 13.408 5.673 13.408 15.17 0 9.496-5.011 15.164-13.408 15.164h-.589v1.326h3.724c12.285 0 20.863-6.781 20.863-16.49 0-9.671-8.578-16.422-20.863-16.422zM280.352 56.168c-3.631 6.197-8.069 8.5-16.381 8.5h-2.295c-4.621 0-6.682-2.245-6.682-7.283V38.558l3.38.067c8.299.153 10.575.521 13.133 8.492l.943 2.902h1.134V25.668h-1.137l-.94 2.988c-2.498 7.94-4.966 8.336-13.133 8.486l-3.38.067V12.78h5.837c9.757 0 14.161 2.026 17.446 8.036l3.719 6.723h1.079V11.525h-46.088v1.173l2.262.456c4.995 1.014 6 3.398 6 6.913v37.158c0 2.884-.681 6.297-5.983 7.145l-2.279.363v1.194h48.153V49.914h-1.07l-3.718 6.254z" fill="#1C1B19"/><mask id="a" maskUnits="userSpaceOnUse" x="0" y="0" width="82" height="81"><path d="M0 37.844C1.31 17.394 17.798 1.07 38.328 0h4.297c21.403 1.116 38.413 18.81 38.413 40.472C81.038 62.856 62.878 81 40.476 81 18.96 81 1.356 64.26 0 43.1v-5.256z" fill="#fff"/></mask><g mask="url(#a)"><path fill-rule="evenodd" clip-rule="evenodd" d="M40.81 43.514l.609.124-.182.596.08.044.904-1.064-.045-.076-1.366.284v.092zm.1-1.682l.078.048.79-.855-.042-.077-1.149.189-.002.092.494.123-.169.48zm-2.613 6.687l-.93-.001-.021.09.366.157-.193.347.07.06.736-.568-.028-.085zm1.978-1.554L39.11 47l-.016.092.475.186-.232.455.072.057.894-.744-.03-.082zm.94-1.024l.644.09-.154.632.084.04.875-1.162-.05-.072-1.405.38.006.092zm-3.087 4.628l-.02.09.366.16-.192.346.07.06.735-.57-.028-.084-.93-.002zm5.804.081l.628-.69-.044-.077-.916.158-.003.091.384.095-.127.374.078.05zm.46-5.88l1.067-1.471-.05-.074-1.746.507.007.093.82.1-.18.807.082.039zm-3.369 4.172l-1.162-.003-.02.09.468.202-.247.447.07.06.92-.712-.029-.084zm2.14-7.967l.799.213-.29.774.077.05 1.26-1.31-.041-.082-1.8.264-.004.09zm-.54 8.043l.942-1.11-.045-.076-1.424.297v.093l.636.13-.188.62.08.046zm2.918-11.208l.07.06.733-.57-.028-.085h-.93l-.019.09.365.157-.191.348zm-2.535 1.557l.069.06 1.148-.89-.028-.084-1.455-.002-.018.091.597.257-.313.568zm4.779 7.205l-.005.091.495.123-.168.482.078.046.79-.853-.042-.077-1.148.188zm3.47-8.19l.07.06.735-.572-.028-.082h-.93l-.019.088.365.158-.193.347zm-9.287 12.366h-.932l-.018.088.364.16-.192.347.07.06.737-.571-.03-.084zm6.677-12.795l.07.06.918-.714-.028-.084h-1.164l-.02.09.47.202-.246.446zm-1.784 6.19l.638.12-.18.626.081.04.925-1.12-.047-.076-1.419.318.002.091zm.893-8.284l4.733.009s1.495.561 3.459 1.351c.9.364 1.381 1.176 1.305 2.104 0 0 .775.776 1.207 1.266.514.595.571 1.42.167 1.958-.4.528-.974.66-1.211.694l-.047-.089c.311-.311.184-.813-.091-1.21-.288-.416-.547-.49-.841-.312-.132.08-.3.204-.3.204l.738 1.176-.028.082c-.584.163-1.393.032-1.771-.445l-3.646-.002-.005.096 2.03.366.06.143-6.96 8.18.066.062 2.37-2.117.004 1.848-.218.556.222 1.296-.078.551 2.169 1.85.06.027c.023.011.051.027.083.045.032.017.067.036.104.058.038.021.074.05.113.076.042.025.077.061.117.09.038.034.077.065.114.104.039.035.07.076.107.115.03.043.066.082.092.127.034.041.056.088.084.13.021.046.049.086.066.13.02.044.039.086.054.125.018.04.03.077.04.108a.59.59 0 01.03.093c.015.056.027.085.027.085l.093.005s.014-.031.034-.084a.458.458 0 00.026-.104.59.59 0 00.013-.143l.001-.084c-.002-.027-.008-.057-.01-.085-.006-.062-.027-.123-.044-.189-.025-.06-.05-.128-.087-.187-.032-.063-.078-.119-.121-.177-.05-.052-.097-.105-.153-.147-.053-.049-.113-.084-.17-.117a1.35 1.35 0 00-.176-.076c-.023-.008-.045-.017-.067-.02.272-.062.542-.122.809-.18h.001s.002 0 .003.002c.024.01.053.026.084.045a.674.674 0 01.103.06c.038.018.076.047.113.072.042.024.077.062.118.09.037.035.078.067.114.106.038.035.07.077.106.113.031.043.066.084.094.127.032.042.055.088.082.131.021.046.05.087.066.13a1.327 1.327 0 01.095.233.695.695 0 01.03.093.68.68 0 00.026.086l.095.004s.014-.03.032-.085a.337.337 0 00.025-.103.534.534 0 00.014-.145l.002-.083a2.463 2.463 0 00-.011-.086c-.006-.06-.027-.12-.044-.188-.025-.06-.049-.127-.086-.187-.033-.063-.077-.118-.12-.176-.05-.051-.098-.106-.154-.148-.053-.047-.115-.082-.17-.117a1.107 1.107 0 00-.166-.071c3.813-.826 6.763-1.383 6.763-1.383 3.855 2.282 3.609 2.14 4.41 2.584 1.47.817 1.408 3.215-1.365 3.215-2.09 0-5.955.356-8.314.812l2.08-1.886-.067-.066s-2.055 1.49-4.5 2.712l-.001.002c-1.323.534-3.32 1.402-5.381 2.318l3.039-2.874-.069-.071s-3.881 3.125-6.634 4.586c-1.655.747-3.08 1.4-3.884 1.768-1.113.507-1.988.65-3.233.208a168.414 168.414 0 01-4.426-1.614c-.977-.37-1.05-1.746-.009-2.077.454-.147 1.64-.524 2.429-.774.345.151.698.307 1.052.461.559.247 1.12.49 1.646.722.263.113.517.225.757.331.06.025.119.052.177.077.03.011.06.025.088.037l.041.019.002.001h.005l.006.003.02.014c.115.06.19.113.274.184.161.138.269.303.329.461.058.162.071.314.063.441-.005.125-.031.222-.048.29-.022.065-.032.101-.032.101l.108.044.043-.106c.025-.072.063-.175.08-.316.016-.14.018-.317-.037-.511a1.338 1.338 0 00-.345-.576 1.845 1.845 0 00-.296-.238l-.021-.012-.008-.007-.02-.01-.042-.024c-.026-.017-.054-.031-.082-.047l-.17-.097c-.227-.132-.468-.268-.716-.41-.498-.286-1.029-.587-1.56-.892-1.174-.672-2.35-1.342-3.165-1.811l-.012-.006s4.114-1.293 9.357-2.731l.843.37.028-.055.014-.025-.493-.398-1.298-1.045-.645-.22-.427-1.173-.583-.329-.57-2.615-.093.02.239 2.855-1.63.913v-3.776l-.1-.01-.472 3.98-2.197.43.75-4.33-.099-.02-1.343 4.423-2.154.147 1.562-4.621-.093-.038-2.298 4.704h-.004l-2.123.142 2.478-4.874-.08-.049-3.395 5.02-2.259.354 3.67-5.409-.07-.057-6.18 7.176-.332-.222 5.535-8.676 8.474-3.166.904-.39c.164-.072.335-.14.515-.234.093-.042.175-.096.264-.145.086-.052.17-.11.252-.166.162-.12.317-.248.454-.389l.103-.105c.032-.036.065-.072.095-.108.066-.072.122-.148.178-.222.057-.075.105-.154.155-.227l.133-.226c.036-.078.072-.15.107-.22.032-.075.06-.147.09-.214a3.73 3.73 0 00.12-.381c.035-.115.049-.221.068-.305.014-.084.021-.148.028-.194l.008-.069-.099-.016-.015.067c-.01.044-.022.11-.043.188-.024.078-.045.175-.088.284a3.377 3.377 0 01-.144.354c-.032.063-.067.128-.1.195-.04.065-.08.13-.12.202-.047.066-.092.133-.142.2-.053.066-.102.135-.16.198-.06.067-.115.133-.181.193l-.097.093-.102.088a3.482 3.482 0 01-.683.454c-.084.037-.162.08-.246.112-.163.066-.34.126-.511.186l-.926.33c-.267.097-.49.175-.649.233l-.547-1.098 1.103-.97-.05-.072-2.942 1.8-.692-1.384 3.972-2.94-.064-.082-6.043 3.61-.549-1.458 5.694-3.8-.05-.078-7.337 4.028-.347-1.373 6.208-3.941-.045-.08-7.6 3.871-.22-1.62v-.001l6.27-3.377-.04-.08-7.759 3.233-.036-1.582 6.335-2.473-.034-.095-7.686 2.102.093-1.73 5.843-1.337-.02-.092-7.478 1.025.24-1.493 5.502-.59v-.096l-7.687.126.116-1.261 6.13-.042.006-.092-11.01-.803-.019-.105 1.785-.617-.003-.088-4.562-1.74.011-.097 1.825-.146.017-.095-3.938-2.43.021-.136 2.76.16.032-.089-3.175-2.977.041-.095 1.49.286.046-.074-1.491-1.875-.925-2.658.093-.046 1.428 1.799 3.228 1.853.068-.063-2.08-3.056-.783-3.413.098-.043 1.683 2.524 3.258 2.65.064-.064-1.995-3.618-.686-4.412.107-.025 1.945 3.76 4.088 3.392.079-.065-2.814-4.512-.635-5.413.093-.028 1.753 4.798 5.792 5.213 7.304 3.738 8.017 11.133 3.119 2.629.075-.073-1.365-1.78h.009l.005-.002-.014.001 3.211-.826-.006-.1-2.79-.163-.007-.093 4.094-.73L44.55 35l-5.108-.388-.005-.098 6.514-1.09 2.588.611.028-.089-2.468-1.135-4.042.09-.01-.097 4.314-.813 2.673.915.036-.091-2.426-1.538-2.865-.116-.002-.103 3.212-.497 2.807 1.315.052-.082-2.32-2.176-2.518-.01-.01-.103 3.07-.686 2.723 2.238.061-.065-2.09-3.06-2.283-.427.01-.095 2.883-.173 2.602 3.165.08-.053-1.87-3.939-2.498-.814.02-.098 3.182.26 2.415 4.153.085-.039L51.785 25l-3.131-1.118.02-.097 3.788.681 2.111 5.01.094-.028-1.387-5.588-3.354-1.9.044-.094 3.992 1.518 1.905 5.597.095-.02-1.193-6.112-3.648-2.66.053-.083 4.249 2.327 1.664 5.89.098-.02-1.044-6.306-3.824-3.393.059-.075 4.475 3.05 1.29 6.003.092-.02-.653-6.38-3.814-4.123.066-.077 4.417 3.78.973 5.81.1-.007-.428-6.108-3.61-4.714.07-.064 4.248 4.441.672 5.03.092-.01-.216-5.316-3.3-5.057.075-.058 3.823 4.838.508 3.613.098-.01-.177-3.864-2.348-5.24.083-.047 2.912 4.963.27 2.038.094-.01.139-2.32-1.216-4.932.092-.034 1.673 4.138h.093L64 13.71l.102.023-.338 4.067.091.03 2.83-4.07.085.049-1.838 3.675.065.067 4.324-3.086.053.078-6.597 8.894s-2.131 5.704-2.824 7.61a1.261 1.261 0 01-.74.772l-5.345 2.135-1.413 1.243-4.715.556.014.107zM40.519 0C18.141 0 0 18.133 0 40.5 0 62.869 18.141 81 40.519 81c22.379 0 40.519-18.131 40.519-40.5 0-22.367-18.14-40.5-40.519-40.5zm5.965 41.434l.772.166-.239.753.08.045 1.144-1.317-.044-.075-1.713.337v.091zm3.185 3.313l.386.095-.131.377.078.046.631-.684-.042-.079-.918.154-.004.09zM43.51 57.523c.04.02.077.047.118.072.04.024.075.059.118.087.037.035.077.065.114.103.01.009.02.017.029.027.027.026.052.057.082.086.031.04.066.083.096.124.032.041.055.087.085.129.022.043.051.085.068.13a1.546 1.546 0 01.1.23.517.517 0 01.032.092c.016.054.029.086.029.086h.093s.013-.028.031-.083c.01-.028.02-.06.024-.104a.695.695 0 00.011-.146l-.001-.08-.013-.089c-.007-.063-.03-.121-.049-.187-.026-.061-.051-.126-.09-.184-.02-.04-.048-.077-.076-.113l-.047-.06c-.05-.053-.1-.105-.157-.147-.054-.046-.116-.08-.172-.112a1.333 1.333 0 00-.179-.072c-.028-.009-.056-.018-.084-.024l-.048-.007c-.012-.003-.023-.003-.034-.006a.483.483 0 00-.14-.008.409.409 0 00-.107.008c-.06.01-.093.019-.093.019l-.007.088v.005s.03.017.077.036c.026.01.055.027.087.042l.103.058zm3.677 1.476c-.096.03-.207.06-.332.096-.218.062-.476.136-.764.225-.225.066-.47.14-.73.22a36.13 36.13 0 00-.397.12l-.413.14c-.557.192-1.152.397-1.745.604-.38.134-.754.276-1.118.414l-.614.235c-.186.07-.365.14-.538.208l-.255.1c-.195.076-.381.156-.556.228l-.148.063c-.286.115-.542.225-.754.314-.11.048-.21.091-.296.126l-.397.172-.03.014.058.14.028-.008s.15-.051.409-.143c.09-.031.191-.069.305-.11.218-.076.477-.168.767-.274l.216-.083.498-.18.251-.088c.178-.063.362-.127.548-.198.2-.072.402-.147.609-.22.366-.138.743-.277 1.125-.407.59-.213 1.182-.423 1.736-.622.266-.095.538-.194.8-.28.188-.066.37-.127.54-.186l.18-.062c.287-.096.54-.187.755-.264.12-.04.225-.08.32-.111l.433-.16-.044-.148-.447.125zm-7.864 1.367l.334-.112c.433-.137.86-.28 1.269-.42.159-.053.314-.106.462-.158l.12-.042.524-.174c.22-.072.415-.14.576-.196.075-.03.147-.053.207-.074l.296-.107.028-.013-.044-.145-.027.007s-.114.023-.308.07l-.154.037c-.177.044-.398.097-.65.164l-.534.14c-.133.037-.27.079-.413.122l-.178.056c-.376.115-.807.253-1.28.408-.35.116-.692.239-1.024.357l-.244.087-.123.045a39.44 39.44 0 00-.972.364l-.348.138-.087.037-.335.134c-.183.08-.289.121-.289.121l-.028.013.053.142.328-.097c.069-.021.144-.042.23-.072l.244-.072c.1-.032.207-.063.317-.1.201-.07.425-.138.664-.213.144-.046.295-.092.45-.143.302-.097.616-.2.936-.304zm6.61-11.663l-.004.091.495.123-.17.48.079.048.79-.852-.043-.08-1.147.19zm-.84-1.178l1.015-1.51-.053-.07-1.727.57.01.088.822.075-.152.813.085.034zm5.388-5.465l-1.158.1-.01.091.483.16-.206.467.075.053.852-.791-.036-.08zm-5.406 12.935L42.68 52.07l-.122.053.615 3.483 1.26 1.461.066.034c.027.01.055.025.088.04.03.017.066.035.102.058.038.02.077.044.116.07.04.025.077.06.119.087.036.037.08.066.114.105.04.032.075.074.11.113.032.042.067.08.097.123.032.042.056.087.086.129.02.044.05.085.068.128.021.042.042.085.057.126.019.038.03.074.042.105.013.033.025.064.032.093a.86.86 0 00.028.085l.094.002s.015-.031.032-.084a.592.592 0 00.024-.106c.005-.042.012-.092.01-.144v-.084c-.006-.025-.009-.056-.013-.084-.008-.061-.03-.124-.049-.187-.026-.06-.05-.126-.09-.186-.033-.062-.08-.117-.125-.174a1.089 1.089 0 00-.157-.144c-.053-.046-.114-.08-.171-.114-.062-.026-.12-.055-.178-.07a1.293 1.293 0 00-.084-.025h-.007c.032-.01.066-.017.098-.024.233-.06.467-.12.703-.179l.034.013a.742.742 0 01.083.044c.032.016.067.034.105.056.038.02.075.045.115.071.042.023.078.06.118.088.038.034.08.063.116.102.04.035.073.076.11.113.031.042.066.083.096.125.032.04.057.088.085.13.022.043.052.083.07.13.02.039.04.08.056.121.018.04.03.074.043.108.013.03.024.064.032.09.016.056.028.088.028.088h.095s.013-.032.03-.085a.472.472 0 00.025-.103c.005-.042.012-.094.01-.145 0-.027 0-.055-.002-.082l-.013-.088c-.007-.06-.029-.121-.047-.187-.027-.06-.052-.124-.09-.182a1.094 1.094 0 00-.28-.32c-.055-.046-.116-.081-.174-.115-.061-.026-.12-.054-.178-.071l-.035-.01c.655-.163 1.317-.325 1.978-.48l-2.143-1.191-.836.015zm4-15.49l.597.258-.313.568.07.06 1.148-.89-.029-.083-1.453-.002-.02.088zm-21.07-13.26l-2.717 1.389-.148-.805-.131.013-.012 1.335.104.05 2.97-1.874-.065-.108zm2.6 3.282l-3.801 2.057-.148-.804-.119.013-.024 1.335.105.058 4.055-2.554-.067-.105zm-1.24-1.683l-3.592 1.903-.147-.803-.127.015-.017 1.332.1.052 3.85-2.391-.067-.108zm5.617 6.56l-2.715 1.385-.15-.789-.12.017-.02 1.317.095.05 2.975-1.871-.065-.109zm-1.477-1.614l-3.278 1.703-.148-.805-.127.018-.017 1.328.097.06 3.542-2.197-.069-.107zm-1.467-1.581l-3.72 1.94-.149-.805-.13.013-.012 1.338.106.051 3.97-2.433-.065-.104zm-8.815-2.056l.04-.15-8.359-2.295-3.765-3.059-.101.1 3.485 3.528 8.7 1.876zm.235-1.702l.051-.151-7.076-2.286-3.496-3.284-.104.113 3.139 3.703 7.486 1.905zm22.618 11.454l.596.261-.316.567.07.06 1.152-.886-.028-.084-1.455-.007-.02.09zM14.898 30.85l3.083.898 6.093.558.02-.16-9.162-1.447-.034.15zm.794-10.5l-.113.088 2.56 3.523 6.19 2.053.056-.151-5.73-2.36-2.963-3.154zM36.214 36.1l-1.946.924-.147-.735-.123.005-.02 1.273.11.05 2.193-1.413-.067-.105zm-12.88-5.583l-11.578-2.386-.045.148 3.006 1.098L23.3 30.68l.034-.164zm3.403-5.31l.073-.146-5.356-2.57-3.261-4.339-.12.086 2.913 4.75 5.75 2.218zM49.36 58.473l.155-.021c.032-.005.067-.01.107-.019a11.581 11.581 0 00.865-.16c.175-.038.36-.08.546-.123l.115-.027a21.084 21.084 0 001.186-.287c.106-.028.201-.058.281-.083.042-.01.08-.023.113-.033l.148-.048.025-.01-.028-.143h-.028s-.057.003-.156.015l-.117.016c-.083.01-.182.022-.29.037-.167.025-.36.056-.574.097-.207.034-.431.082-.65.128-.398.095-.835.215-1.198.33-.118.035-.218.07-.302.097l-.088.031c-.094.03-.148.052-.148.052l-.025.011.035.142.028-.002zm4.902-2.178s.072-.004.199-.022l.134-.017c.106-.012.236-.026.38-.05.47-.067 1.035-.16 1.558-.258l.131-.027c.238-.046.472-.09.693-.14l.327-.068c.141-.028.274-.056.394-.084.141-.03.267-.061.37-.086l.137-.032c.123-.03.192-.05.192-.05l.028-.008-.025-.146-.03.001s-.071.004-.197.018l-.123.013c-.109.012-.243.026-.395.044l-.044.006c-.205.028-.437.057-.684.098-.26.044-.54.096-.812.145l-.02.006c-.51.095-1.074.213-1.546.325-.136.034-.256.063-.356.09a2.934 2.934 0 01-.15.037c-.123.032-.191.052-.191.052l-.027.008.03.148.027-.003zm-4.215-.448c.03.02.066.038.103.059.037.02.074.047.113.074.041.025.076.064.118.09a.54.54 0 00.059.054.382.382 0 01.054.053c.038.033.07.075.106.116.031.04.067.08.094.124.03.042.056.088.082.13.023.046.05.09.067.131.021.042.04.084.055.124l.04.108c.011.032.024.064.03.092.014.056.026.09.026.09l.094.002s.014-.032.033-.085a.479.479 0 00.026-.105.57.57 0 00.013-.144c.002-.026.002-.054.002-.082a1.69 1.69 0 01-.011-.088c-.006-.06-.027-.12-.045-.186-.025-.06-.049-.125-.085-.185-.034-.066-.077-.12-.122-.178l-.03-.033a1.17 1.17 0 00-.292-.232c-.06-.03-.12-.059-.178-.075-.028-.009-.056-.02-.084-.027a1.117 1.117 0 00-.067-.011h-.001l-.009-.003c-.053-.01-.102-.01-.144-.011a.42.42 0 00-.107.007c-.06.007-.094.014-.094.014l-.005.074h-.002l-.001.02.078.04c.024.011.05.026.084.043zm4.478-14.05c.006.027.015.055.022.08.009.027.013.052.024.073.014.022.024.04.035.06l.03.049c.012.015.026.026.036.038a.694.694 0 00.068.061l.057-.042s-.002-.032-.012-.078a.353.353 0 01-.006-.04l-.001-.047a.517.517 0 01.004-.102c.003-.037.015-.074.025-.111a.127.127 0 01.023-.053c.01-.02.013-.04.025-.056.025-.035.044-.071.067-.091.01-.013.015-.022.043-.045l.035-.029.017-.013.003-.001c.037-.02.067-.047.107-.056.038-.02.077-.025.116-.036.021-.004.04 0 .06-.004a.145.145 0 01.06-.002.726.726 0 01.037.005c.037 0 .054.007.072.01a.448.448 0 01.093.027l.039.014c.015.007.026.016.039.023.044.029.072.043.072.043l.073-.063s-.01-.03-.032-.078a.296.296 0 00-.02-.042l-.039-.049c-.015-.015-.032-.036-.049-.055-.018-.018-.04-.029-.063-.047-.022-.015-.044-.032-.07-.047-.026-.013-.055-.023-.085-.035a.445.445 0 00-.096-.026c-.034-.005-.067-.012-.103-.014-.072.003-.146.006-.217.031-.075.017-.14.062-.208.098l-.018.018-.003.002-.008.007-.017.015-.034.03c-.02.015-.046.05-.072.084-.058.07-.08.139-.107.204-.015.067-.032.136-.026.199.001.03.001.061.004.092zm.165-2.711l.008.029.004.027.033.07a.5.5 0 00.137.19c.016.019.036.034.055.048.033.028.066.045.1.063l.035.02c.09.035.177.054.257.054l.048-.004c.047-.004.096-.007.139-.025l.064-.02.018-.007.031-.015.018-.014a.619.619 0 00.196-.172.524.524 0 00.098-.212l.005-.025a.323.323 0 00.011-.077l-.002-.084a.499.499 0 00-.027-.109l-.01-.032c-.033-.067-.057-.098-.057-.098l-.017-.024-.11.042-.003.021s-.006.04-.004.087l-.009.033a.242.242 0 01-.015.06c-.004.013-.013.03-.02.047-.004.01-.01.02-.016.029l-.014.025a.158.158 0 01-.017.02c-.007.005-.011.012-.02.02-.007.013-.025.024-.041.037-.008.01-.017.014-.035.022l-.02.011-.004.003-.045.018a.342.342 0 01-.109.014h-.003a.344.344 0 01-.105-.023l-.03-.019-.018-.008a.141.141 0 00-.033-.026c-.004-.003-.01-.005-.01-.008a.07.07 0 00-.019-.02c-.007-.006-.011-.01-.02-.03l-.027-.043-.003-.01-.002-.004a.185.185 0 01-.02-.063.127.127 0 01-.006-.046l-.002-.017c0-.01 0-.025.003-.037a.172.172 0 00.003-.027c.002-.01.002-.02.006-.028l.01-.03a.103.103 0 00.005-.022l.024-.047.024-.04c.008-.009.015-.021.014-.024.051-.04.076-.069.076-.069l.017-.018-.066-.13-.025.005s-.036.004-.109.019l-.025.013a.44.44 0 00-.105.061c-.02.018-.043.035-.065.056a.243.243 0 00-.042.05.513.513 0 00-.11.242.43.43 0 00-.016.13c-.003.041.006.082.013.123l.004.018zm3.294 2.07c.019.018.033.039.05.06.016.019.029.041.044.065.028.043.055.09.074.138.023.048.04.1.053.151a.81.81 0 01.025.157c.005.026.003.053.005.08.001.027-.003.055-.005.08a1.007 1.007 0 01-.033.157.372.372 0 01-.028.072l-.036.078.08.045.045-.073c.014-.027.03-.057.04-.083.025-.058.041-.116.055-.178.005-.029.013-.058.016-.09.003-.03.007-.062.005-.093a1.012 1.012 0 00-.01-.184.995.995 0 00-.04-.18c-.018-.06-.04-.12-.069-.176-.015-.027-.027-.056-.044-.081-.017-.028-.03-.055-.05-.081a1.302 1.302 0 00-.118-.147l-.005-.008c-.376-.355-.756-.704-1.128-1.063l-.273.323c.42.304.83.617 1.244.924.036.034.071.069.104.106zm-20.13-.073l-.038-.298-.118-.007-.128.773.103.061 1.438-1.005-.066-.104-1.19.58zm-.544-3.393l-1.376.604-.123-.557h-.119l-.052 1.061.097.054 1.633-1.062-.06-.1zm.862 4.995l-.026-.29-.118-.01-.13.77.09.069 1.049-.761-.064-.102-.8.324zm.678-3.782l-1.677.743-.056-.475-.117-.01-.113.97.095.068 1.935-1.187-.067-.11zM57.723 56.62c-.196.028-.393.06-.586.088a14.655 14.655 0 00-.884.161l-.21.04-.212.041c-.09.017-.176.036-.259.05-.188.038-.356.074-.497.106-.078.014-.147.03-.208.044l-.296.068.026.148.3-.033.219-.028c.14-.016.31-.035.497-.063l.475-.067.129-.017c.13-.02.265-.038.402-.057.226-.04.456-.069.697-.103l.456-.062c.153-.025.307-.047.458-.07l.126-.02.566-.086c.247-.038.48-.074.698-.112.106-.016.208-.033.305-.049.169-.025.32-.053.451-.075.098-.018.184-.034.259-.046l.297-.053-.018-.15-.03.002s-.097.003-.272.017l-.086.004c-.17.011-.383.026-.633.056-.108.01-.223.02-.343.033-.213.021-.436.044-.67.073l-.569.075c-.11.017-.588.085-.588.085zm-24.848-6.584l-.018.09.364.158-.192.347.07.06.736-.57-.03-.084-.93-.001zm1.758 14.93l-1.317-.58 1.277-.671-.035-.087-1.926.535a.247.247 0 00-.17.164.248.248 0 00.16.314l.022.007 1.877.603c.314.096.626.207.939.313l.939.323.033-.088-.897-.42c-.3-.14-.598-.28-.902-.413zm.857-14.93l-.016.09.364.158-.193.347.07.06.737-.57-.03-.084-.932-.001z" fill="#EC1A2E"/></g><path d="M696.92 44.838c0 10.972 6.48 18.63 16.863 18.63 9.867 0 14.212-8.32 14.653-11.413h-.294c-1.178 2.945-5.007 6.185-10.162 6.185-8.1 0-13.034-6.48-13.034-16.347 0-.368 0-1.178.074-1.988h23.048v-.369c0-7.29-5.302-13.475-13.991-13.475-10.456 0-17.157 9.057-17.157 18.777zm8.1-5.228c.81-7.584 3.314-13.328 8.689-13.328 4.934 0 6.186 5.449 6.186 10.456v2.872H705.02zm55.006 18.85c0 1.842-1.546 2.652-3.461 3.315l-1.104.368v.22h17.82v-.22l-1.915-.442c-2.061-.442-3.461-1.546-3.461-3.24V39.24c0-10.087-5.228-13.18-10.971-13.18-5.744 0-9.794 4.934-11.267 7.364l.148-7.364h-.148c-4.786 1.399-8.247 2.356-13.475 3.093v.22l5.596 2.283v26.804c0 1.84-1.546 2.65-3.461 3.314l-1.104.368v.22h17.82v-.22l-1.915-.442c-2.062-.442-3.461-1.546-3.461-3.24V33.719c1.768-1.767 4.418-3.387 7.143-3.387 3.903 0 7.216 2.504 7.216 9.278v18.85zm58.465 3.462c-5.449 0-7.143-2.946-7.143-7.364v-18.63l3.829.074c8.247.147 11.34.515 13.917 8.542l.81 2.503h.221V24.441h-.221l-.81 2.504c-2.577 8.026-5.67 8.394-13.917 8.541l-3.829.074v-24.3h6.333c9.352 0 14.653 1.546 18.188 7.88l3.534 6.258h.295v-14.58h-45.655v.221l1.915.295c5.375.81 6.406 3.976 6.406 7.29v35.934c0 3.314-1.031 6.48-6.406 7.29l-1.915.295v.22h47.717v-14.58h-.295l-3.534 5.818c-3.608 5.965-8.395 8.32-17.084 8.32h-2.356zm42.61 1.546c8.1 0 14.064-5.375 14.064-11.634 0-13.476-19.145-10.089-19.145-19.367 0-3.313 2.725-6.185 6.554-6.185 4.197 0 7.437 3.166 9.351 10.53h.295l.736-9.867s-5.522-.884-10.014-.884c-10.383 0-13.697 5.817-13.697 10.383 0 13.033 19.661 8.836 19.661 19.808 0 3.534-2.798 6.922-7.142 6.922-5.155 0-9.499-3.83-12.15-12.96h-.295V61.7c1.694.589 8.026 1.767 11.782 1.767zm56.518-19.587c0-10.751-6.333-17.82-14.728-17.82-4.712 0-8.762 2.283-10.898 5.302l.147-5.302h-.147c-4.786 1.399-8.247 2.356-13.475 3.093v.22l5.596 2.283v42.636c0 1.84-.81 2.945-3.535 3.755l-1.03.295v.22h17.746v-.22l-1.841-.442c-2.725-.736-3.461-1.694-3.461-3.608V62.437c2.283.59 4.786 1.031 7.658 1.031 11.635 0 17.968-9.646 17.968-19.587zm-25.626-12.076c1.767-.81 3.387-1.105 5.228-1.105 8.321 0 12.15 6.7 12.15 15.61 0 7.66-1.841 16.937-9.646 16.937-4.124 0-7.732-2.724-7.732-8.1V31.805zm32.921 6.332c.221-3.976 3.167-7.952 8.321-7.952 3.608 0 7.511 2.356 7.511 8.762v3.608l-11.634 4.64c-4.271 1.693-6.112 5.08-6.112 8.32 0 4.05 3.092 7.953 8.762 7.953 3.388 0 7.07-2.283 9.058-5.743.294 3.166 2.209 5.743 6.185 5.743 3.387 0 6.775-2.062 7.879-3.829l-.147-.147c-.442.294-1.62.81-2.872.81-1.473 0-3.166-.663-3.166-3.535v-18.04c0-9.058-5.523-12.666-11.561-12.666-6.48 0-12.592 4.713-12.592 12.076h.368zm5.744 14.36c0-5.302 5.891-7.732 10.088-9.5v14.36c-1.252.662-2.577 1.104-3.829 1.104-3.608 0-6.259-2.577-6.259-5.965zm53.298 5.964c0 1.84-1.547 2.65-3.461 3.314l-1.105.368v.22h17.82v-.22l-1.914-.442c-2.062-.442-3.461-1.546-3.461-3.24V39.24c0-10.087-5.228-13.18-10.972-13.18s-9.794 4.934-11.266 7.364l.147-7.364h-.147c-4.787 1.399-8.248 2.356-13.476 3.093v.22l5.597 2.283v26.804c0 1.84-1.547 2.65-3.461 3.314l-1.105.368v.22h17.82v-.22l-1.914-.442c-2.062-.442-3.461-1.546-3.461-3.24V33.719c1.767-1.767 4.418-3.387 7.142-3.387 3.903 0 7.217 2.504 7.217 9.278v18.85zm-16.937-37.407c.148-1.694 1.399-2.798 3.535-2.798 2.798 0 6.995 2.43 10.53 2.43 4.271 0 6.48-3.535 6.554-7.438h-.442c-.148 1.694-1.399 2.798-3.535 2.798-2.798 0-6.995-2.43-10.53-2.43-4.271 0-6.48 3.535-6.553 7.438h.441zm67.521 23.71c0-10.382-7.36-18.703-17.01-18.703-9.64 0-17.01 8.32-17.01 18.704 0 10.456 7.37 18.703 17.01 18.703 9.65 0 17.01-8.32 17.01-18.703zm-8.91 0c0 13.55-3.6 18.41-8.1 18.41-4.56 0-8.1-4.787-8.1-18.41 0-13.549 3.54-18.409 8.1-18.409 4.5 0 8.1 4.86 8.1 18.41zm25.86-21.575c0-12.076.15-15.758.15-15.758h-.15c-4.79 1.399-8.25 2.356-13.47 3.093v.22l5.59 2.283v45.434c0 1.84-1.47 2.798-3.53 3.387l-1.03.295v.22h17.01v-.22l-1.11-.295c-1.99-.515-3.46-1.546-3.46-3.387V23.189z" fill="#EC1A2E"/></svg>