<svg class="logo-climate" width="34" height="34" viewBox="0 0 545 545" fill="none" xmlns="http://www.w3.org/2000/svg">
<path fill-rule="evenodd" clip-rule="evenodd" d="M0 254.629C8.80983 117.04 119.698 7.20442 257.762 0H286.665C430.604 7.51054 545 126.559 545 272.312C545 422.92 422.871 545 272.213 545C127.507 545 9.11518 432.362 0 289.996V254.629Z" fill="url(#paint0_linear)"/>
<path fill-rule="evenodd" clip-rule="evenodd" d="M289.997 301.536L285.753 300.669V300.026L295.274 298.049L295.585 298.575L289.286 305.997L288.731 305.695L289.997 301.536ZM286.999 289.274L286.453 288.943L287.631 285.592L284.185 284.735L284.205 284.092L292.207 282.778L292.499 283.313L286.999 289.274ZM261.765 335.566L268.249 335.576L268.443 336.17L263.313 340.134L262.826 339.715L264.169 337.29L261.619 336.199L261.765 335.566ZM273.914 324.989L282.024 324.736L282.228 325.311L275.998 330.502L275.501 330.102L277.117 326.927L273.807 325.632L273.914 324.989ZM293.064 318.23L288.576 317.597L288.537 316.954L298.321 314.305L298.671 314.811L292.577 322.915L291.993 322.632L293.064 318.23ZM266.934 350.497L267.071 349.874L273.554 349.884L273.749 350.478L268.628 354.451L268.141 354.033L269.475 351.617L266.934 350.497ZM311.882 345.627L307.511 350.439L306.966 350.098L307.852 347.488L305.174 346.825L305.194 346.192L311.58 345.092L311.882 345.627ZM318.151 299.169L310.714 309.435L310.139 309.162L311.395 303.542L305.681 302.841L305.632 302.189L317.801 298.653L318.151 299.169ZM279.142 338.508L287.242 338.527L287.446 339.112L281.031 344.079L280.544 343.66L282.267 340.543L279.006 339.131L279.142 338.508ZM307.715 284.453L302.156 282.963L302.186 282.33L314.725 280.489L315.007 281.054L306.236 290.189L305.69 289.849L307.715 284.453ZM304.95 331.32L298.389 339.053L297.834 338.741L299.148 334.407L294.719 333.502V332.859L304.639 330.784L304.95 331.32ZM319.203 261.311L318.716 260.893L320.05 258.468L317.509 257.367L317.636 256.744H324.119L324.314 257.328L319.203 261.311ZM301.533 272.171L301.056 271.752L303.237 267.788L299.08 265.996L299.207 265.363L309.341 265.373L309.536 265.957L301.533 272.171ZM334.322 322.632L334.351 321.999L342.353 320.684L342.645 321.22L337.145 327.171L336.6 326.849L337.768 323.489L334.322 322.632ZM359.02 265.295L358.533 264.876L359.877 262.451L357.336 261.35L357.462 260.737H363.946L364.141 261.311L359.02 265.295ZM287.33 351.121H293.823L294.028 351.705L288.887 355.688L288.401 355.27L289.744 352.844L287.203 351.734L287.33 351.121ZM340.835 262.305L340.348 261.886L342.061 258.779L338.79 257.367L338.927 256.744H347.036L347.231 257.328L340.835 262.305ZM332.365 305.899L327.916 305.052L327.906 304.419L337.787 302.198L338.118 302.724L331.674 310.545L331.109 310.263L332.365 305.899ZM367.12 247.345L334.137 247.286L334.039 246.536L366.896 242.66L376.738 233.992C376.738 233.992 412.545 219.675 413.985 219.1C416.497 218.048 418.172 216.344 419.135 213.714C423.964 200.429 438.81 160.643 438.81 160.643L484.78 98.6209L484.41 98.0755L454.28 119.6L453.832 119.133L466.634 93.4979L466.05 93.157L446.326 121.548L445.693 121.334L448.049 92.9719L447.338 92.8064L440.154 121.636H439.502L427.848 92.7771L427.206 93.0109L435.676 127.411L434.712 143.589L434.06 143.657L432.171 129.447L411.883 94.8322L411.308 95.1634L427.663 131.706L428.9 158.656L428.218 158.724L424.675 133.528L398.039 99.7799L397.523 100.189L420.508 135.456L422.017 172.535L421.374 172.603L416.692 137.521L387.087 106.549L386.6 106.997L411.756 139.868L414.735 182.469L414.044 182.518L407.268 141.991L376.485 115.636L376.028 116.172L402.605 144.933L407.151 189.423L406.518 189.56L397.523 147.699L366.341 126.428L365.932 126.944L392.578 150.611L399.85 194.585L399.168 194.722L387.574 153.65L357.969 137.424L357.599 138.008L383.018 156.552L391.331 199.173L390.669 199.319L377.391 160.282L349.577 149.695L349.275 150.348L372.64 163.604L382.307 202.572L381.655 202.767L366.945 167.831L340.543 163.078L340.406 163.759L362.223 171.551L373.409 205.533L372.815 205.805L355.992 176.84L333.816 175.028L333.679 175.71L351.086 181.388L364.112 208.854L363.557 209.224L345.43 187.154L325.336 188.362L325.268 189.024L341.175 192.004L355.739 213.344L355.311 213.792L336.337 198.189L314.949 202.971L315.017 203.692L332.569 203.76L348.73 218.934L348.37 219.509L328.812 210.334L306.43 213.802L306.44 214.522L326.407 215.331L343.307 226.054L343.054 226.687L324.431 220.308L294.378 225.976L294.446 226.658L322.61 226.025L339.803 233.943L339.608 234.567L321.578 230.301L276.192 237.907L276.222 238.589L311.814 241.297L311.892 241.93L283.367 247.023L283.416 247.676L302.857 248.806L302.896 249.507L280.525 255.273L280.622 255.263L280.583 255.273L280.525 255.283L290.036 267.691L289.51 268.197L267.781 249.867L211.92 172.223L161.024 146.15L120.672 109.802L108.454 76.3367L107.811 76.5315L112.231 114.282L131.838 145.751L131.293 146.199L102.808 122.541L89.256 96.3224L88.5064 96.4977L93.2864 127.265L107.188 152.5L106.741 152.949L84.0379 134.463L72.3167 116.863L71.6352 117.165L77.0869 140.969L91.5827 162.279L91.1057 162.717L68.6173 149.793L58.6678 137.248L58.0156 137.57L64.4603 156.104L74.8478 169.184L74.5266 169.701L64.1488 167.704L63.8665 168.366L85.985 189.131L85.7611 189.745L66.5339 188.634L66.3879 189.579L93.8219 206.526L93.705 207.188L80.9908 208.211L80.9129 208.883L112.699 221.019L112.718 221.632L100.286 225.937L100.413 226.668L177.126 232.268L177.088 232.911L134.379 233.203L133.571 241.998L187.125 241.121V241.784L148.787 245.903L147.122 256.315L199.226 249.166L199.362 249.809L158.649 259.14L158.006 271.197L211.56 256.539L211.794 257.201L167.654 274.45L167.907 285.485L221.967 262.928L222.24 263.493L178.558 287.044V287.053L180.086 298.351L233.046 271.353L233.357 271.908L190.104 299.393L192.518 308.967L243.638 280.878L243.988 281.424L204.317 307.925L208.143 318.093L250.248 292.917L250.696 293.481L223.019 313.993L227.837 323.645L248.34 311.091L248.69 311.587L241 318.356L244.816 326.012C245.328 325.826 245.939 325.608 246.634 325.361C247.432 325.077 248.339 324.754 249.333 324.395C250.318 324.046 251.384 323.664 252.511 323.259C253.556 322.884 254.654 322.49 255.787 322.087C256.012 322.007 256.239 321.928 256.466 321.849C257.44 321.508 258.427 321.162 259.351 320.791C259.695 320.659 260.025 320.5 260.358 320.34C260.59 320.229 260.824 320.116 261.064 320.012C261.619 319.72 262.183 319.408 262.729 319.087C263.809 318.415 264.87 317.675 265.824 316.847L266.535 316.233L267.207 315.581C267.62 315.203 267.978 314.793 268.344 314.372C268.384 314.327 268.423 314.282 268.463 314.237C268.737 313.942 268.981 313.626 269.223 313.312C269.342 313.158 269.461 313.004 269.582 312.854C269.791 312.574 269.987 312.295 270.181 312.018C270.312 311.831 270.442 311.645 270.575 311.461C270.858 310.964 271.13 310.506 271.403 310.049C271.539 309.777 271.678 309.511 271.815 309.251C271.913 309.063 272.01 308.878 272.104 308.695C272.503 307.818 272.863 306.981 273.106 306.221C273.32 305.683 273.456 305.189 273.576 304.752C273.625 304.573 273.671 304.403 273.72 304.244C273.834 303.819 273.912 303.447 273.973 303.156C273.991 303.073 274.007 302.998 274.022 302.929C274.09 302.617 274.129 302.461 274.129 302.461L274.82 302.578C274.82 302.578 274.8 302.744 274.761 303.055C274.744 303.17 274.727 303.3 274.707 303.446C274.672 303.712 274.629 304.032 274.567 304.409C274.521 304.607 274.479 304.823 274.434 305.053C274.348 305.502 274.251 306.004 274.09 306.533C273.905 307.331 273.593 308.227 273.252 309.191C273.149 309.427 273.048 309.673 272.945 309.926C272.844 310.173 272.74 310.426 272.629 310.682C272.386 311.169 272.133 311.675 271.88 312.22C271.739 312.456 271.599 312.698 271.456 312.944C271.293 313.226 271.127 313.512 270.955 313.798C270.831 313.978 270.709 314.163 270.586 314.351C270.361 314.693 270.132 315.043 269.874 315.376C269.823 315.443 269.773 315.511 269.722 315.579C269.382 316.032 269.036 316.493 268.638 316.925C268.424 317.178 268.2 317.431 267.976 317.684L267.256 318.415C266.301 319.399 265.221 320.285 264.092 321.122C263.517 321.522 262.933 321.921 262.339 322.281C262.124 322.399 261.914 322.522 261.705 322.644C261.311 322.875 260.92 323.103 260.499 323.294C259.515 323.814 258.572 324.213 257.657 324.601C257.405 324.708 257.155 324.814 256.907 324.921C254.6 325.914 250.608 327.648 250.608 327.648L191.564 349.728L153.003 410.23L155.32 411.779L198.369 361.737L198.865 362.136L173.291 399.858L189.033 397.384L212.689 362.38L213.244 362.72L195.974 396.712L210.772 395.718H210.801L226.806 362.915L227.458 363.178L216.574 395.407L231.586 394.384L240.941 363.529L241.632 363.675L236.404 393.868L251.708 390.878L254.999 363.11L255.7 363.188V389.524L267.051 383.154L265.386 363.237L266.039 363.1L270.011 381.343L274.07 383.631L277.049 391.813L281.537 393.352L290.581 400.637L294.018 403.412L293.92 403.588L293.726 403.968L287.855 401.387C251.319 411.418 222.658 420.437 222.658 420.437C222.688 420.447 222.736 420.476 222.736 420.476C226.968 422.912 232.586 426.125 238.558 429.54C240.609 430.714 242.703 431.911 244.796 433.109C246.796 434.256 248.795 435.398 250.758 436.519C252.427 437.472 254.068 438.41 255.661 439.322C256.237 439.653 256.807 439.979 257.369 440.301C258.498 440.946 259.596 441.575 260.655 442.186C260.9 442.323 261.141 442.464 261.381 442.605C261.532 442.693 261.682 442.781 261.833 442.868C261.888 442.898 261.943 442.928 261.998 442.957C262.137 443.032 262.275 443.105 262.407 443.189L262.699 443.355L262.836 443.433L262.894 443.481L263.04 443.559C263.722 443.998 264.52 444.631 265.104 445.225C266.331 446.442 267.129 447.893 267.509 449.237C267.888 450.591 267.879 451.828 267.762 452.802C267.649 453.752 267.4 454.457 267.225 454.952L267.207 455.003C267.012 455.481 266.905 455.743 266.905 455.743L266.155 455.442C266.155 455.442 266.224 455.188 266.379 454.74C266.389 454.702 266.398 454.663 266.408 454.622C266.525 454.153 266.683 453.512 266.71 452.714C266.769 451.828 266.681 450.767 266.272 449.637C265.854 448.536 265.104 447.387 263.984 446.423C263.4 445.926 262.875 445.556 262.067 445.137L261.93 445.04L261.891 445.02H261.852L261.843 445.01L261.56 444.884C261.492 444.855 261.424 444.824 261.356 444.794C261.219 444.733 261.083 444.673 260.947 444.621C260.779 444.549 260.611 444.475 260.443 444.401C260.201 444.295 259.957 444.188 259.711 444.085C258.036 443.345 256.264 442.566 254.434 441.777C252.732 441.025 250.974 440.256 249.19 439.475C247.137 438.577 245.049 437.664 242.966 436.742C241.502 436.105 240.038 435.461 238.586 434.823C237.595 434.387 236.611 433.954 235.635 433.527C230.145 435.271 221.879 437.9 218.716 438.923C211.463 441.231 211.969 450.825 218.774 453.406C230.466 457.857 235.83 459.776 249.615 464.665C258.289 467.743 264.384 466.749 272.143 463.214C277.74 460.643 287.67 456.094 299.207 450.883C318.385 440.696 345.43 418.898 345.43 418.898L345.907 419.395L324.732 439.439C339.092 433.05 353.004 427.002 362.223 423.272L362.233 423.262C379.269 414.74 393.59 404.348 393.59 404.348L394.057 404.805L379.561 417.964C395.995 414.779 422.932 412.295 437.486 412.295C456.811 412.295 457.239 395.572 446.998 389.874C445.875 389.251 445.048 388.794 444.224 388.331C440.952 386.493 437.728 384.569 416.273 371.856C416.273 371.856 395.722 375.742 369.154 381.498C369.534 381.615 369.914 381.8 370.303 381.995C370.367 382.035 370.431 382.074 370.496 382.114C370.83 382.32 371.181 382.536 371.491 382.813C371.833 383.07 372.137 383.393 372.436 383.712C372.478 383.757 372.52 383.801 372.562 383.846C372.598 383.894 372.635 383.942 372.671 383.99C372.938 384.34 373.202 384.687 373.399 385.073C373.609 385.408 373.757 385.773 373.897 386.121C373.933 386.208 373.968 386.294 374.003 386.378C374.036 386.511 374.072 386.64 374.106 386.766C374.194 387.084 374.277 387.383 374.304 387.683C374.334 387.888 374.363 388.102 374.382 388.287C374.382 388.36 374.381 388.428 374.38 388.494C374.377 388.621 374.373 388.739 374.373 388.862C374.392 389.222 374.343 389.573 374.275 389.874C374.246 390.186 374.178 390.41 374.1 390.595C373.973 390.975 373.876 391.189 373.876 391.189L373.214 391.16C373.214 391.16 373.127 390.936 373.039 390.556C372.99 390.352 372.912 390.137 372.825 389.913C372.747 389.68 372.659 389.436 372.552 389.154C372.445 388.881 372.318 388.589 372.163 388.287C372.101 388.113 372.008 387.947 371.911 387.775C371.84 387.648 371.767 387.518 371.705 387.381C371.633 387.269 371.566 387.154 371.499 387.039C371.385 386.845 371.272 386.649 371.131 386.466C371.016 386.287 370.884 386.116 370.751 385.943C370.659 385.823 370.566 385.703 370.478 385.579C370.368 385.469 370.263 385.351 370.158 385.232C370.022 385.08 369.887 384.927 369.739 384.79C369.569 384.608 369.386 384.447 369.205 384.287C369.116 384.209 369.027 384.13 368.94 384.05C368.821 383.968 368.709 383.874 368.597 383.78C368.444 383.651 368.291 383.523 368.123 383.427C368.051 383.379 367.979 383.329 367.908 383.279C367.716 383.146 367.525 383.012 367.334 382.92C367.081 382.745 366.847 382.609 366.614 382.502C366.399 382.375 366.195 382.258 366.029 382.19L366.01 382.17H366C364.141 382.579 362.262 382.998 360.364 383.427C360.519 383.456 360.675 383.514 360.831 383.573C361.23 383.7 361.639 383.894 362.058 384.099C362.457 384.333 362.875 384.576 363.245 384.917C363.586 385.173 363.882 385.488 364.179 385.804C364.221 385.849 364.264 385.894 364.306 385.94C364.368 386.023 364.43 386.105 364.492 386.187C364.735 386.509 364.975 386.827 365.153 387.177C365.361 387.5 365.508 387.865 365.647 388.211C365.684 388.303 365.72 388.394 365.757 388.482C365.789 388.608 365.824 388.733 365.858 388.856C365.947 389.177 366.033 389.487 366.068 389.797C366.075 389.92 366.092 390.05 366.11 390.177C366.12 390.25 366.129 390.322 366.137 390.391C366.137 390.538 366.137 390.675 366.133 390.812C366.132 390.866 366.13 390.92 366.127 390.975C366.146 391.335 366.098 391.676 366.039 391.978C366 392.28 365.922 392.514 365.854 392.699C365.718 393.069 365.621 393.283 365.621 393.283L364.968 393.254C364.968 393.254 364.89 393.05 364.783 392.66C364.744 392.455 364.667 392.241 364.579 392.007C364.501 391.793 364.423 391.54 364.297 391.257C364.19 390.985 364.063 390.693 363.917 390.381C363.852 390.212 363.762 390.05 363.671 389.883C363.598 389.752 363.524 389.617 363.459 389.475C363.387 389.367 363.32 389.254 363.252 389.14C363.138 388.948 363.022 388.753 362.875 388.569C362.759 388.373 362.619 388.192 362.477 388.009C362.395 387.902 362.312 387.794 362.233 387.683C362.154 387.598 362.077 387.511 362.001 387.426C361.835 387.237 361.67 387.052 361.483 386.884C361.314 386.703 361.137 386.547 360.96 386.391C360.871 386.313 360.782 386.235 360.695 386.154C360.572 386.069 360.457 385.974 360.342 385.878C360.192 385.754 360.042 385.63 359.877 385.531C359.796 385.476 359.717 385.42 359.639 385.365C359.453 385.234 359.273 385.107 359.088 385.005C358.835 384.849 358.592 384.712 358.368 384.596C358.144 384.469 357.949 384.362 357.784 384.284C357.608 384.206 357.375 384.089 357.375 384.089H357.365L342.256 371.194L342.801 367.347L341.253 358.308L342.772 354.432L342.743 341.546L326.232 356.312L325.774 355.873L374.266 298.829L373.847 297.835L359.702 295.283L359.741 294.611L385.14 294.621C387.778 297.952 393.415 298.867 397.484 297.728L397.679 297.153L392.539 288.953C392.539 288.953 393.707 288.095 394.622 287.531C396.676 286.284 398.477 286.81 400.483 289.702C402.4 292.478 403.286 295.975 401.115 298.147L401.446 298.77C403.101 298.527 407.093 297.611 409.887 293.929C412.7 290.17 412.301 284.424 408.719 280.275C405.71 276.856 400.307 271.441 400.307 271.441C400.843 264.974 397.494 259.305 391.215 256.773C377.537 251.26 367.12 247.345 367.12 247.345ZM330.671 287.326L325.287 286.167V285.534L337.223 283.177L337.534 283.703L329.561 292.887L329.006 292.576L330.671 287.326ZM350.171 309.932L347.484 309.269L347.513 308.636L353.909 307.565L354.201 308.11L349.801 312.883L349.256 312.561L350.171 309.932ZM305.112 398.695C304.93 398.576 304.753 398.458 304.571 398.367C304.318 398.221 304.074 398.085 303.85 397.968C303.768 397.929 303.688 397.888 303.611 397.849C303.48 397.781 303.357 397.719 303.247 397.676C302.916 397.54 302.711 397.423 302.711 397.423V397.384L302.76 396.77C302.76 396.77 302.984 396.712 303.403 396.643C303.597 396.605 303.86 396.566 304.152 396.585C304.444 396.566 304.785 396.566 305.126 396.643C305.165 396.653 305.204 396.658 305.243 396.663C305.281 396.668 305.32 396.673 305.359 396.682C305.466 396.702 305.583 396.712 305.7 396.731C305.846 396.76 305.992 396.806 306.138 396.852C306.187 396.867 306.236 396.882 306.284 396.897C306.693 397.023 307.102 397.199 307.53 397.403C307.569 397.425 307.607 397.447 307.646 397.469C308.003 397.674 308.385 397.892 308.728 398.182C309.125 398.473 309.465 398.832 309.814 399.201L309.818 399.205L310.149 399.624L310.149 399.624C310.344 399.877 310.539 400.13 310.685 400.413C310.909 400.761 311.069 401.139 311.226 401.508C311.253 401.572 311.28 401.635 311.308 401.698C311.339 401.804 311.371 401.907 311.403 402.008C311.51 402.346 311.611 402.666 311.648 403.003C311.663 403.111 311.678 403.21 311.692 403.31C311.707 403.41 311.721 403.51 311.736 403.617C311.736 403.802 311.736 404.007 311.746 404.182C311.765 404.542 311.716 404.883 311.668 405.195C311.639 405.507 311.57 405.731 311.502 405.925C311.376 406.305 311.288 406.5 311.288 406.5H310.636C310.636 406.5 310.548 406.276 310.431 405.906C310.383 405.692 310.305 405.487 310.207 405.263C310.13 405.039 310.042 404.796 309.915 404.503C309.808 404.231 309.672 403.948 309.516 403.656C309.441 403.455 309.329 403.262 309.217 403.069C309.156 402.963 309.094 402.857 309.039 402.75C308.956 402.631 308.879 402.507 308.802 402.382C308.69 402.202 308.578 402.021 308.445 401.854C308.314 401.666 308.166 401.478 308.02 401.292C307.94 401.19 307.86 401.088 307.783 400.987C307.662 400.871 307.553 400.752 307.447 400.637C307.367 400.549 307.289 400.464 307.209 400.384C307.141 400.315 307.082 400.257 307.005 400.198C306.859 400.047 306.704 399.912 306.55 399.778C306.436 399.679 306.323 399.581 306.216 399.478C306.075 399.387 305.947 399.286 305.822 399.186C305.679 399.073 305.539 398.962 305.389 398.874C305.295 398.816 305.203 398.755 305.112 398.695ZM328.776 409.077C329.288 408.933 329.76 408.799 330.184 408.662L333.3 407.795L333.611 408.818L330.593 409.938C330.241 410.052 329.869 410.185 329.473 410.328C329.124 410.453 328.755 410.585 328.364 410.717L328.058 410.827C326.626 411.338 324.968 411.931 323.097 412.558L321.851 412.987C321.418 413.136 320.975 413.287 320.523 413.442C319.735 413.712 318.919 413.991 318.083 414.282C316.562 414.787 314.986 415.353 313.429 415.911C313.124 416.021 312.819 416.131 312.515 416.24C311.637 416.554 310.746 416.872 309.845 417.194C306.78 418.291 303.597 419.429 300.414 420.574C297.756 421.48 295.128 422.453 292.577 423.408C291.885 423.656 291.201 423.906 290.522 424.154C289.786 424.422 289.056 424.688 288.332 424.947C287.221 425.373 286.116 425.764 285.044 426.143C284.867 426.206 284.691 426.268 284.516 426.33L282.764 426.943C281.928 427.24 281.115 427.537 280.328 427.824C279.98 427.952 279.636 428.077 279.298 428.2L277.789 428.774C275.774 429.515 273.963 430.158 272.444 430.693C272.177 430.789 271.918 430.883 271.669 430.973C271.184 431.148 270.734 431.311 270.322 431.453C268.511 432.096 267.47 432.456 267.47 432.456L267.275 432.514L266.876 431.531L267.08 431.433C267.08 431.433 268.083 431.005 269.845 430.235C270.343 430.035 270.9 429.794 271.511 429.531C271.641 429.474 271.774 429.417 271.909 429.359C272.246 429.217 272.599 429.067 272.966 428.911C274.212 428.383 275.625 427.784 277.166 427.167L278.198 426.729C278.463 426.619 278.732 426.506 279.004 426.392C279.982 425.982 281.007 425.553 282.073 425.142C282.374 425.019 282.681 424.899 282.992 424.777C283.273 424.667 283.558 424.556 283.844 424.44C285.052 423.963 286.298 423.476 287.592 422.989C289.004 422.454 290.425 421.908 291.876 421.353C294.407 420.389 297.016 419.395 299.664 418.46C303.792 417.019 307.939 415.587 311.824 414.253L314.695 413.269C315.65 412.977 316.574 412.694 317.47 412.431C319.281 411.876 320.984 411.36 322.552 410.902C324.557 410.279 326.358 409.763 327.877 409.334C328.188 409.243 328.488 409.158 328.776 409.077ZM277.721 417.418L275.394 418.197C274.164 418.595 272.945 418.993 271.746 419.384C270.773 419.702 269.814 420.015 268.872 420.321C268.259 420.519 267.655 420.709 267.064 420.894C266.614 421.036 266.171 421.175 265.737 421.314C265.344 421.438 264.958 421.559 264.578 421.678C263.346 422.065 262.184 422.43 261.113 422.794C260.616 422.964 260.132 423.114 259.662 423.258C259.404 423.338 259.151 423.416 258.903 423.496L257.199 424.002C256.769 424.15 256.374 424.268 256.008 424.377C255.869 424.418 255.734 424.459 255.602 424.499C254.269 424.898 253.315 425.181 253.315 425.181L252.945 424.187L253.139 424.099C253.139 424.099 253.879 423.807 255.155 423.252L257.491 422.317L258.095 422.064C258.389 421.948 258.695 421.825 259.011 421.698C259.489 421.506 259.991 421.305 260.519 421.1C262.514 420.311 264.831 419.454 267.294 418.558L268.151 418.246L269.845 417.642L270.326 417.47C272.492 416.696 274.715 415.901 276.981 415.149C280.281 414.068 283.28 413.103 285.899 412.305L287.145 411.915L287.423 411.831C288.316 411.559 289.178 411.296 290.017 411.058L293.745 410.084C295.311 409.666 296.706 409.326 297.867 409.043L298.272 408.945L299.343 408.682C300.696 408.36 301.485 408.195 301.485 408.195L301.679 408.146L301.981 409.159L301.786 409.247C301.786 409.247 301.047 409.519 299.723 409.996C299.637 410.026 299.548 410.057 299.457 410.089C299.1 410.212 298.7 410.35 298.282 410.513C298.146 410.56 298.007 410.608 297.864 410.658C296.831 411.018 295.623 411.44 294.271 411.876L290.62 413.094L289.783 413.386C288.751 413.746 287.67 414.116 286.561 414.486C283.708 415.47 280.739 416.464 277.721 417.418ZM321.423 337.495L321.452 336.862L329.444 335.537L329.746 336.092L324.236 342.033L323.691 341.702L324.869 338.352L321.423 337.495ZM322.669 318.113L315.601 328.641L315.007 328.408L316.068 322.739L310.334 322.213L310.266 321.6L322.299 317.626L322.669 318.113ZM345.069 291.232L353.14 290.53L353.393 291.086L347.455 296.608L346.929 296.238L348.37 292.985L345.001 291.865L345.069 291.232ZM298.778 360.344L315.474 380.739L321.296 380.632L336.23 388.939C331.625 390.021 327.011 391.15 322.445 392.29C322.484 392.3 322.525 392.312 322.566 392.324C322.608 392.336 322.649 392.348 322.688 392.358C323.019 392.453 323.35 392.598 323.691 392.749C323.772 392.784 323.853 392.82 323.934 392.855L324.008 392.898C324.386 393.119 324.784 393.352 325.132 393.653C325.531 393.936 325.881 394.306 326.222 394.666L326.222 394.667C326.543 395.056 326.865 395.446 327.088 395.884C327.316 396.226 327.476 396.595 327.63 396.951C327.661 397.021 327.691 397.091 327.721 397.16C327.755 397.284 327.792 397.405 327.828 397.524C327.924 397.845 328.017 398.152 328.052 398.465C328.066 398.563 328.079 398.656 328.092 398.749C328.108 398.859 328.124 398.967 328.14 399.078C328.15 399.263 328.15 399.458 328.15 399.643C328.169 400 328.121 400.358 328.082 400.648L328.081 400.656C328.043 400.958 327.984 401.192 327.916 401.377C327.789 401.747 327.702 401.971 327.702 401.971H327.04C327.04 401.971 326.952 401.747 326.845 401.357C326.787 401.172 326.709 400.939 326.621 400.724C326.583 400.632 326.548 400.54 326.511 400.445C326.455 400.299 326.396 400.146 326.319 399.974C326.212 399.692 326.076 399.4 325.93 399.127C325.851 398.926 325.741 398.74 325.632 398.555C325.566 398.444 325.501 398.334 325.443 398.221C325.374 398.117 325.307 398.008 325.24 397.898C325.118 397.7 324.994 397.497 324.849 397.316C324.72 397.131 324.575 396.95 324.43 396.768C324.345 396.663 324.26 396.556 324.178 396.449C324.093 396.361 324.011 396.271 323.929 396.181C323.764 396.002 323.6 395.822 323.418 395.66C323.253 395.482 323.071 395.333 322.891 395.185C322.796 395.107 322.701 395.03 322.61 394.949C322.498 394.871 322.39 394.783 322.282 394.694C322.12 394.561 321.958 394.429 321.783 394.335C321.51 394.15 321.247 393.975 320.984 393.838C320.722 393.683 320.478 393.556 320.254 393.449C320.04 393.313 319.836 393.215 319.67 393.137C319.573 393.108 319.495 393.069 319.437 393.05C317.792 393.458 316.167 393.877 314.542 394.296L314.54 394.296L314.48 394.309C314.274 394.354 314.062 394.4 313.858 394.462H313.907C314.092 394.511 314.287 394.569 314.491 394.637C314.78 394.713 315.065 394.838 315.358 394.966C315.479 395.019 315.602 395.073 315.727 395.124C315.8 395.168 315.873 395.212 315.947 395.256C316.28 395.455 316.622 395.66 316.925 395.923C317.324 396.205 317.674 396.566 318.015 396.926C318.076 397.004 318.138 397.082 318.199 397.159C318.453 397.476 318.703 397.791 318.891 398.143C319.103 398.468 319.249 398.816 319.391 399.151C319.432 399.248 319.473 399.344 319.514 399.439C319.544 399.542 319.576 399.646 319.607 399.749C319.709 400.084 319.811 400.417 319.855 400.744C319.865 400.809 319.874 400.876 319.882 400.943C319.899 401.077 319.917 401.211 319.943 401.328V401.913C319.962 402.263 319.916 402.605 319.878 402.892L319.875 402.916C319.836 403.227 319.768 403.471 319.709 403.656C319.592 404.026 319.485 404.24 319.485 404.24L318.833 404.231C318.833 404.231 318.745 404.016 318.638 403.637C318.598 403.468 318.531 403.292 318.46 403.105C318.445 403.065 318.43 403.025 318.414 402.984C318.384 402.909 318.354 402.83 318.324 402.747C318.266 402.592 318.205 402.425 318.122 402.254C318.015 401.971 317.869 401.669 317.723 401.377C317.655 401.213 317.563 401.055 317.47 400.895C317.392 400.76 317.313 400.624 317.246 400.481C317.16 400.358 317.081 400.232 317.002 400.105C316.892 399.93 316.782 399.754 316.652 399.585C316.527 399.408 316.392 399.245 316.257 399.082C316.16 398.966 316.064 398.849 315.971 398.728C315.931 398.684 315.892 398.639 315.853 398.594C315.648 398.362 315.44 398.127 315.211 397.939C315.073 397.784 314.917 397.652 314.761 397.52C314.642 397.419 314.523 397.318 314.413 397.208C314.275 397.121 314.146 397.018 314.018 396.917C313.876 396.804 313.735 396.692 313.586 396.605C313.313 396.42 313.04 396.254 312.778 396.108C312.616 396.009 312.455 395.921 312.307 395.841C312.222 395.795 312.141 395.751 312.067 395.708C311.983 395.67 311.905 395.632 311.83 395.595C311.695 395.53 311.573 395.47 311.454 395.426C311.249 395.319 310.996 395.192 310.996 395.192L302.215 385.005L297.931 360.714L298.778 360.344ZM347.503 274.509L343.346 272.707L343.483 272.093L353.607 272.103L353.812 272.678L345.809 278.892L345.323 278.473L347.503 274.509ZM177.604 189.92L196.539 180.239L196.996 180.989L176.299 194.059L175.579 193.709L175.656 184.398L176.572 184.31L177.604 189.92ZM188.166 217.473L214.656 203.127L215.123 203.857L186.871 221.671L186.141 221.262L186.307 211.951L187.134 211.863L188.166 217.473ZM180.982 204.656L206.011 191.391L206.478 192.141L179.648 208.815L178.957 208.455L179.074 199.163L179.959 199.056L180.982 204.656ZM226.231 246.799L245.147 237.138L245.604 237.897L224.868 250.949L224.206 250.598L224.352 241.413L225.189 241.297L226.231 246.799ZM212.018 237.761L234.857 225.879L235.334 226.629L210.655 241.949L209.983 241.53L210.1 232.268L210.986 232.141L212.018 237.761ZM198.71 228.392L224.635 214.854L225.092 215.584L197.425 232.55L196.685 232.19L196.772 222.859L197.678 222.772L198.71 228.392ZM163.487 199.465L163.215 200.517L102.593 187.436L78.3136 162.824L79.0145 162.133L105.251 183.463L163.487 199.465ZM165.211 187.592L164.85 188.644L112.689 175.359L90.8234 149.54L91.5438 148.751L115.901 171.649L165.211 187.592ZM326.602 270.35L322.445 268.529L322.581 267.905L332.715 267.954L332.91 268.538L324.888 274.723L324.401 274.304L326.602 270.35ZM126.688 218.613L105.212 212.35L105.446 211.299L169.28 221.389L169.144 222.509L126.688 218.613ZM109.953 139.742L110.742 139.118L131.38 161.11L171.315 177.57L170.915 178.622L127.798 164.305L109.953 139.742ZM240.172 255.409L253.733 248.962L254.201 249.692L238.916 259.539L238.147 259.198L238.293 250.315L239.15 250.286L240.172 255.409ZM83.3175 193.387L163.994 210.032L163.76 211.172L103.947 202.075L83.006 194.42L83.3175 193.387ZM188.205 171.98L187.699 172.993L147.629 157.516L127.331 124.392L128.168 123.798L150.89 154.049L188.205 171.98ZM346.413 404.854C345.722 404.951 345.332 405 345.332 405L345.138 405.02L344.894 404.026L345.069 403.948C345.069 403.948 345.449 403.802 346.101 403.588L346.715 403.374C346.932 403.305 347.166 403.226 347.415 403.143C347.837 403.001 348.304 402.845 348.818 402.692C351.349 401.893 354.396 401.056 357.161 400.393L357.276 400.369C358.768 400.055 360.293 399.735 361.697 399.497C363.187 399.215 364.53 399 365.689 398.825C366.134 398.762 366.556 398.71 366.944 398.661C367.218 398.627 367.476 398.594 367.714 398.562C368.015 398.523 368.298 398.484 368.531 398.455C369.223 398.367 369.622 398.348 369.622 398.348H369.817L370.011 399.341L369.836 399.419C369.836 399.419 369.466 399.546 368.804 399.75C368.72 399.775 368.633 399.802 368.541 399.83C368.378 399.88 368.203 399.934 368.015 399.984C367.461 400.159 366.799 400.364 366.059 400.559C365.017 400.861 363.713 401.202 362.174 401.572C360.782 401.913 359.263 402.253 357.793 402.565L356.995 402.75C355.691 403.052 354.406 403.344 353.189 403.607C351.884 403.89 350.55 404.153 349.226 404.396C348.448 404.533 347.747 404.64 347.163 404.727C346.88 404.786 346.637 404.825 346.413 404.854ZM380.876 389.66C379.99 389.787 379.493 389.816 379.493 389.816L379.299 389.835L379.094 388.803L379.279 388.745C379.279 388.745 379.756 388.608 380.613 388.384C380.924 388.316 381.265 388.228 381.655 388.121C382.242 387.966 382.924 387.798 383.685 387.61C383.833 387.573 383.984 387.536 384.137 387.498C387.428 386.719 391.361 385.891 394.914 385.229L395.05 385.19C395.51 385.107 395.973 385.023 396.438 384.938C397.882 384.676 399.336 384.413 400.706 384.177C402.1 383.948 403.423 383.771 404.635 383.608C404.922 383.57 405.203 383.532 405.477 383.495L405.779 383.456C406.429 383.378 407.032 383.312 407.576 383.252C407.92 383.214 408.24 383.178 408.534 383.144L409.39 383.057C410.267 382.959 410.763 382.93 410.763 382.93L410.967 382.92L411.143 383.943L410.948 383.992C410.948 383.992 410.471 384.138 409.614 384.342L408.66 384.566C407.94 384.742 407.064 384.956 406.08 385.17C405.243 385.365 404.318 385.56 403.335 385.755C403.001 385.822 402.66 385.893 402.313 385.965C401.903 386.05 401.484 386.138 401.057 386.222C399.663 386.54 398.189 386.826 396.694 387.116L396.228 387.206L395.313 387.391C391.672 388.082 387.729 388.725 384.458 389.193C383.6 389.334 382.813 389.426 382.14 389.505C382.027 389.518 381.917 389.531 381.81 389.543C381.631 389.563 381.462 389.586 381.304 389.607C381.152 389.627 381.009 389.646 380.876 389.66ZM350.645 386.99C350.457 386.887 350.282 386.791 350.122 386.69C349.888 386.573 349.703 386.466 349.538 386.388C349.197 386.222 348.993 386.115 348.993 386.115L349.003 385.969H349.012L349.051 385.453C349.051 385.453 349.285 385.404 349.703 385.355C349.908 385.316 350.161 385.287 350.453 385.307C350.494 385.308 350.537 385.309 350.58 385.31C350.842 385.318 351.138 385.326 351.456 385.384L351.514 385.404H351.524C351.68 385.423 351.835 385.453 351.991 385.482C352.152 385.522 352.312 385.582 352.472 385.634C352.507 385.646 352.541 385.657 352.575 385.667C352.963 385.778 353.351 385.968 353.747 386.161L353.812 386.193C354.201 386.427 354.62 386.68 354.99 387.001C355.301 387.245 355.584 387.517 355.846 387.81C355.924 387.888 355.992 387.965 356.061 388.043L356.099 388.092C356.397 388.474 356.683 388.841 356.908 389.28C357.111 389.616 357.257 389.977 357.398 390.323C357.432 390.408 357.467 390.493 357.501 390.576C357.53 390.678 357.559 390.778 357.588 390.877C357.688 391.221 357.783 391.546 357.813 391.871C357.832 392.076 357.862 392.29 357.891 392.485C357.891 392.601 357.891 392.718 357.889 392.832C357.887 392.909 357.885 392.985 357.881 393.059C357.901 393.429 357.842 393.77 357.784 394.063C357.745 394.364 357.677 394.608 357.608 394.793C357.472 395.163 357.375 395.387 357.375 395.387L356.723 395.368C356.723 395.368 356.635 395.134 356.538 394.744C356.507 394.589 356.445 394.415 356.381 394.238C356.365 394.193 356.349 394.147 356.333 394.101C356.246 393.887 356.158 393.634 356.051 393.352C355.944 393.069 355.817 392.777 355.671 392.485C355.602 392.311 355.505 392.134 355.405 391.952C355.337 391.827 355.267 391.7 355.204 391.569C355.144 391.474 355.084 391.376 355.024 391.276C354.9 391.07 354.774 390.86 354.629 390.663C354.504 390.451 354.346 390.257 354.191 390.066C354.118 389.976 354.046 389.887 353.977 389.797C353.902 389.713 353.83 389.628 353.758 389.544C353.588 389.346 353.422 389.153 353.237 388.988C353.121 388.842 352.984 388.725 352.858 388.618C352.712 388.501 352.575 388.375 352.449 388.238C352.298 388.148 352.161 388.032 352.024 387.916C351.896 387.808 351.768 387.7 351.631 387.615C351.584 387.583 351.538 387.551 351.492 387.52C351.269 387.368 351.052 387.22 350.842 387.099C350.775 387.061 350.71 387.025 350.645 386.99ZM381.425 289.08C381.388 288.957 381.349 288.831 381.324 288.709C381.311 288.566 381.306 288.423 381.302 288.281C381.3 288.209 381.298 288.138 381.294 288.066C381.257 287.649 381.361 287.197 381.464 286.751L381.479 286.683C381.504 286.622 381.528 286.561 381.552 286.499C381.71 286.098 381.873 285.683 382.219 285.261C382.251 285.221 382.283 285.18 382.315 285.139C382.467 284.945 382.613 284.757 382.725 284.677L382.959 284.463L383.076 284.355L383.134 284.307L383.154 284.297L383.28 284.17C383.394 284.11 383.507 284.046 383.619 283.982C383.976 283.779 384.331 283.578 384.731 283.489C385.225 283.314 385.739 283.294 386.233 283.275L386.24 283.274C386.446 283.282 386.638 283.316 386.829 283.349C386.873 283.357 386.917 283.364 386.96 283.372C387.194 283.401 387.418 283.469 387.632 283.547C387.836 283.635 388.041 283.703 388.216 283.791C388.356 283.872 388.479 283.958 388.598 284.042C388.637 284.069 388.675 284.096 388.713 284.122C388.777 284.174 388.842 284.218 388.904 284.261C388.993 284.321 389.077 284.379 389.151 284.453C389.199 284.505 389.247 284.561 389.295 284.615C389.362 284.693 389.429 284.77 389.491 284.833C389.565 284.919 389.629 285.001 389.687 285.076C389.714 285.11 389.739 285.143 389.764 285.174C389.822 285.281 389.861 285.359 389.9 285.466C390.056 285.807 390.124 286.011 390.124 286.011L389.618 286.449C389.618 286.449 389.423 286.352 389.112 286.148C389.08 286.13 389.05 286.111 389.019 286.092C388.964 286.058 388.908 286.023 388.839 285.992C388.791 285.977 388.747 285.96 388.703 285.943C388.659 285.926 388.615 285.909 388.567 285.894C388.372 285.816 388.187 285.758 387.924 285.709C387.904 285.705 387.885 285.7 387.865 285.695C387.757 285.669 387.639 285.64 387.418 285.631C387.418 285.631 387.376 285.625 387.32 285.618C387.273 285.613 387.217 285.606 387.165 285.602C387.028 285.573 386.882 285.583 386.746 285.612C386.673 285.626 386.605 285.626 386.537 285.626C386.469 285.626 386.401 285.626 386.328 285.641C386.248 285.664 386.169 285.682 386.09 285.701C385.898 285.746 385.706 285.791 385.519 285.894C385.333 285.933 385.181 286.031 385.023 286.132C384.942 286.184 384.859 286.238 384.77 286.284L384.75 286.294L384.634 286.381L384.39 286.586C384.223 286.72 384.17 286.789 384.116 286.862C384.107 286.873 384.098 286.885 384.088 286.897C383.982 286.99 383.885 287.137 383.779 287.298C383.729 287.374 383.677 287.453 383.621 287.531C383.58 287.592 383.555 287.66 383.529 287.729C383.506 287.792 383.483 287.856 383.446 287.92C383.368 288.027 383.31 288.164 383.29 288.29C383.274 288.353 383.256 288.415 383.239 288.477C383.184 288.675 383.13 288.869 383.115 289.069C383.076 289.332 383.076 289.566 383.086 289.78C383.086 289.888 383.095 289.995 383.095 290.102C383.105 290.199 383.115 290.297 383.134 290.384C383.202 290.706 383.222 290.93 383.222 290.93L382.823 291.222C382.823 291.222 382.638 291.085 382.346 290.793C382.278 290.715 382.18 290.637 382.102 290.53C382.051 290.457 381.999 290.372 381.943 290.28C381.926 290.25 381.907 290.22 381.888 290.189C381.869 290.155 381.85 290.122 381.831 290.088C381.774 289.988 381.718 289.888 381.645 289.771C381.592 289.671 381.561 289.558 381.529 289.438C381.514 289.382 381.498 289.323 381.479 289.264C381.463 289.205 381.444 289.143 381.425 289.08ZM382.531 269.999L382.472 269.795L382.443 269.668C382.438 269.637 382.432 269.607 382.427 269.576C382.383 269.324 382.338 269.071 382.356 268.811C382.356 268.529 382.365 268.217 382.463 267.905C382.531 267.438 382.725 266.96 383.076 266.435C383.134 266.347 383.183 266.279 383.232 266.22C383.319 266.094 383.407 265.967 383.524 265.87C383.621 265.779 383.718 265.699 383.812 265.622C383.87 265.574 383.926 265.528 383.981 265.48C384.225 265.276 384.497 265.149 384.711 265.052L384.887 264.964C385.393 264.857 385.646 264.827 385.646 264.827L385.821 264.798L386.279 265.704L386.162 265.831C386.162 265.831 385.987 266.025 385.627 266.308C385.636 266.327 385.588 266.415 385.529 266.483C385.501 266.534 385.469 266.585 385.436 266.638C385.413 266.676 385.388 266.715 385.364 266.756L385.198 267.087C385.198 267.116 385.179 267.184 385.159 267.243C385.14 267.311 385.111 267.389 385.091 267.447C385.069 267.492 385.064 267.541 385.058 267.593C385.056 267.609 385.055 267.626 385.052 267.642C385.052 267.668 385.05 267.696 385.047 267.724C385.043 267.759 385.038 267.795 385.033 267.827C385.013 267.915 385.013 268.012 385.013 268.09V268.09L385.023 268.207C385.013 268.314 385.042 268.431 385.072 268.529C385.101 268.723 385.15 268.86 385.208 268.967L385.218 268.996L385.237 269.064L385.422 269.366C385.49 269.503 385.519 269.532 385.568 269.571C385.607 269.6 385.656 269.649 385.695 269.717C385.704 269.736 385.743 269.746 385.773 269.765C385.85 269.814 385.928 269.873 385.996 269.951C385.996 269.951 386.055 269.98 386.123 270.009C386.191 270.058 386.269 270.097 386.337 270.136C386.59 270.233 386.843 270.291 387.067 270.301H387.087C387.428 270.301 387.681 270.262 387.846 270.204L388.158 270.077L388.187 270.058L388.323 269.98L388.34 269.972C388.456 269.919 388.52 269.889 388.567 269.824C388.59 269.806 388.614 269.789 388.638 269.772C388.732 269.704 388.82 269.641 388.859 269.571C388.884 269.546 388.904 269.522 388.922 269.501C388.946 269.472 388.967 269.447 388.995 269.425C389.044 269.376 389.092 269.317 389.112 269.288L389.209 269.113C389.222 269.09 389.236 269.067 389.25 269.045C389.278 268.999 389.306 268.954 389.326 268.908C389.342 268.871 389.358 268.833 389.375 268.796C389.409 268.718 389.442 268.643 389.462 268.577C389.521 268.441 389.55 268.295 389.569 268.168L389.628 267.934C389.618 267.613 389.657 267.331 389.657 267.331L389.676 267.184L390.446 266.892L390.562 267.058C390.562 267.058 390.728 267.272 390.961 267.74L391.03 267.964C391.098 268.168 391.185 268.431 391.215 268.723C391.215 268.901 391.223 269.071 391.232 269.255L391.234 269.308C391.234 269.503 391.195 269.688 391.156 269.843L391.117 270.019C390.981 270.613 390.757 271.09 390.436 271.499C390.183 271.937 389.394 272.541 389.073 272.697L388.946 272.795L388.732 272.902L388.606 272.95L388.158 273.087C387.884 273.201 387.579 273.228 387.285 273.254C387.254 273.257 387.224 273.259 387.194 273.262C387.038 273.272 386.853 273.291 386.853 273.291C386.298 273.291 385.695 273.155 385.062 272.911L384.819 272.775C384.794 272.762 384.77 272.749 384.745 272.735C384.536 272.623 384.328 272.511 384.127 272.337C383.991 272.239 383.855 272.132 383.738 271.996C383.611 271.898 383.485 271.752 383.349 271.587C383.115 271.295 382.852 270.905 382.784 270.671L382.56 270.184L382.531 269.999ZM405.694 284.556C405.608 284.438 405.527 284.327 405.428 284.229C405.204 283.966 404.961 283.722 404.708 283.489C403.598 282.667 402.495 281.839 401.391 281.011C399.618 279.68 397.843 278.35 396.043 277.041L397.942 274.791C399.624 276.417 401.331 278.014 403.038 279.612C403.959 280.474 404.88 281.336 405.798 282.203L405.837 282.261C406.129 282.583 406.411 282.924 406.655 283.284C406.791 283.469 406.888 283.654 407.005 283.849C407.075 283.954 407.135 284.07 407.194 284.186C407.234 284.263 407.274 284.34 407.317 284.414C407.511 284.803 407.667 285.222 407.794 285.641C407.93 286.05 408.018 286.469 408.076 286.897C408.134 287.316 408.164 287.755 408.144 288.183C408.152 288.361 408.134 288.546 408.116 288.721C408.112 288.756 408.109 288.791 408.105 288.826C408.089 289.015 408.045 289.189 408.014 289.362C408.008 289.394 408.003 289.427 407.998 289.459C407.901 289.888 407.784 290.297 407.619 290.696C407.556 290.844 407.475 291.004 407.395 291.162C407.376 291.202 407.356 291.241 407.336 291.28L407.015 291.787L406.46 291.475L406.713 290.93C406.791 290.774 406.859 290.608 406.908 290.423C407.015 290.063 407.093 289.702 407.141 289.332C407.145 289.277 407.15 289.221 407.155 289.162C407.166 289.035 407.177 288.901 407.171 288.767C407.167 288.706 407.166 288.644 407.165 288.582C407.163 288.459 407.161 288.336 407.141 288.212C407.122 287.832 407.054 287.472 406.966 287.121C406.879 286.761 406.752 286.401 406.596 286.07C406.46 285.729 406.275 285.407 406.08 285.105C406.057 285.069 406.034 285.033 406.012 284.998C405.933 284.873 405.86 284.756 405.769 284.657C405.743 284.623 405.718 284.589 405.694 284.556ZM264.9 281.648L265.172 283.722L273.467 279.68L273.924 280.401L263.907 287.414L263.186 286.985L264.082 281.599L264.9 281.648ZM251.786 264.272L261.375 260.065L261.794 260.756L250.414 268.168L249.742 267.788L250.102 260.386H250.929L251.786 264.272ZM267.197 292.868L267.382 294.894L272.96 292.634L273.408 293.345L266.097 298.653L265.474 298.176L266.379 292.8L267.197 292.868ZM260.421 273.7L272.104 268.519L272.571 269.279L259.088 277.557L258.426 277.08L259.214 270.321L260.032 270.389L260.421 273.7ZM400.435 392.549C401.483 392.389 402.544 392.226 403.598 392.076C403.598 392.076 406.927 391.598 407.696 391.481L411.659 390.956C413.294 390.751 414.842 390.595 416.332 390.449C417.169 390.361 417.967 390.284 418.717 390.215C420.459 390.011 421.939 389.904 423.127 389.826L423.73 389.797C424.947 389.699 425.629 389.68 425.629 389.68L425.833 389.66L425.96 390.712L423.886 391.082C423.37 391.17 422.767 391.277 422.085 391.404C421.841 391.445 421.587 391.489 421.324 391.535C420.6 391.662 419.804 391.801 418.941 391.929C418.658 391.975 418.369 392.021 418.074 392.069C417.666 392.135 417.247 392.203 416.818 392.27C415.3 392.533 413.674 392.787 411.951 393.05L408.008 393.653L407.132 393.79C406.08 393.946 405.009 394.101 403.939 394.277C403.389 394.347 402.84 394.423 402.291 394.499C401.781 394.569 401.272 394.64 400.765 394.705C400.305 394.772 399.852 394.835 399.403 394.898C398.21 395.066 397.053 395.228 395.907 395.426C395.567 395.475 395.229 395.522 394.893 395.569C394.286 395.654 393.686 395.738 393.103 395.825L392.208 395.942C391.03 396.108 389.92 396.273 388.898 396.41C387.593 396.605 386.415 396.741 385.432 396.848C385.109 396.892 384.807 396.93 384.527 396.965C384.309 396.992 384.105 397.017 383.913 397.043L381.82 397.277L381.635 396.244L383.699 395.767C384.127 395.67 384.604 395.562 385.15 395.465C386.133 395.241 387.301 394.988 388.615 394.725C388.937 394.67 389.266 394.603 389.604 394.534C389.868 394.481 390.138 394.425 390.416 394.374L391.896 394.082C392.09 394.046 392.285 394.009 392.482 393.972C392.77 393.917 393.061 393.861 393.356 393.809C394.067 393.653 394.807 393.498 395.566 393.371C396.764 393.147 398.127 392.894 399.519 392.689C399.823 392.643 400.129 392.596 400.435 392.549ZM230.339 346.786L230.466 346.153L236.95 346.163L237.154 346.747L232.024 350.721L231.537 350.302L232.88 347.887L230.339 346.786ZM233.542 446.228L242.713 450.28C244.436 451.031 246.127 451.821 247.823 452.613C248.216 452.796 248.608 452.979 249.002 453.162L255.252 456.084L255.018 456.698L248.476 454.448C247.956 454.272 247.437 454.093 246.918 453.915C245.259 453.347 243.602 452.778 241.934 452.266L228.86 448.059L228.704 448.01C227.789 447.718 227.283 446.734 227.584 445.819C227.76 445.244 228.227 444.835 228.772 444.679L242.197 440.949L242.44 441.553L233.542 446.228ZM248.574 346.786L248.69 346.153L255.184 346.163L255.388 346.747L250.258 350.721L249.771 350.302L251.114 347.887L248.574 346.786Z" fill="white"/>
<defs>
  <linearGradient id="paint0_linear" x1="272.5" y1="0" x2="272.5" y2="545" gradientUnits="userSpaceOnUse">
    <stop stop-color="#47A4ED"/>
    <stop offset="0.723958" stop-color="#8CE9BC"/>
    <stop offset="1" stop-color="#8CE9BC"/>
  </linearGradient>
</defs>
</svg>