<svg version="1.1" id="Layer_1" xmlns="http://www.w3.org/2000/svg" xmlns:xlink="http://www.w3.org/1999/xlink" x="0" y="0" viewBox="0 0 199 198.6" style="enable-background:new 0 0 199 198.6" xml:space="preserve"><clipPath id="svg-StampCircle"><path id="SVGID_1_" d="M99.5-.2C44.5-.2 0 44.3 0 99.1s44.5 99.3 99.5 99.3S199 154 199 99.1C199 44.3 154.5-.2 99.5-.2z"/></clipPath><g style="clip-path:url(#svg-StampCircle);"><path style="fill-rule:evenodd;clip-rule:evenodd;fill:#722391" d="M-2.6 27.7h34.4v253H-2.6z"/><path style="fill-rule:evenodd;clip-rule:evenodd;fill:#152b9d" d="M30.7 27.7h34.4v253H30.7z"/><path style="fill-rule:evenodd;clip-rule:evenodd;fill:#70c23b" d="M65.1 27.7h34.4v253H65.1z"/><path style="fill-rule:evenodd;clip-rule:evenodd;fill:#ecfc5a" d="M99.5 27.7h34.4v253H99.5z"/><path style="fill-rule:evenodd;clip-rule:evenodd;fill:#e0a93f" d="M133.9 27.7h34.4v253h-34.4z"/><path style="fill-rule:evenodd;clip-rule:evenodd;fill:#c13124" d="M168.2 27.7h34.4v253h-34.4z"/></g><g style="clip-path:url(#svg-StampCircle);"><path style="fill-rule:evenodd;clip-rule:evenodd;fill:#020200" d="M208.9-3.3 197.1-15 99.5 82.6 1.9-15-9.9-3.3l97.7 97.6-.1.2 11.7 11.7.1-.1.1.1 11.7-11.7-.1-.2z"/><path style="fill-rule:evenodd;clip-rule:evenodd;fill:#62411d" d="m208.9-25.1-11.8-11.7-97.6 97.6L1.9-36.8-9.9-25.1l97.7 97.6-.1.2 11.7 11.7.1-.1.1.1 11.7-11.7-.1-.2z"/><path style="fill-rule:evenodd;clip-rule:evenodd;fill:#a1daec" d="m208.9-48.5-11.8-11.8-97.6 97.7L1.9-60.3-9.9-48.5l97.7 97.6-.1.1 11.7 11.7.1-.1.1.1 11.7-11.7-.1-.1z"/><path style="fill-rule:evenodd;clip-rule:evenodd;fill:#efbcce" d="m208.9-71.3-11.8-11.8-97.6 97.7L1.9-83.1-9.9-71.3l97.7 97.6-.1.1 11.7 11.7.1-.1.1.1 11.7-11.7-.1-.1z"/><path style="fill-rule:evenodd;clip-rule:evenodd;fill:#fbfaf7" d="m208.9-94.8-11.8-11.7L99.5-8.9 1.9-106.5-9.9-94.8 87.8 2.9l-.1.1 11.7 11.7.1-.1.1.1L111.3 3l-.1-.1z"/></g><path d="M155.9 137.7c-2.1-1.1-1.3-.8-10.9-6.3 0 0-7.3 1.3-16.6 3.4.2 0 .2.2.4.2l.4.4.4.4c.2 0 .4.2.4.4 0 0 .2.2.2.4.2 0 .2.2.2.4v1.2h-.2v-.4c-.2 0-.2 0-.2-.2s-.2-.2-.2-.4-.2-.2-.2-.4-.2-.2-.2-.4-.2-.2-.2-.4l-.2-.2-.2-.2c-.2 0-.2-.2-.4-.2l-.2-.2c0-.2-.2-.2-.2-.2 0-.2-.2-.2-.2-.2-.6 0-1.1.2-1.9.4h.2s.2.2.4.2l.4.4.4.4c.2 0 .4.2.4.4 0 0 .2.2.2.4.2 0 .2.2.2.4v1.2h-.2v-.4c-.2 0-.2 0-.2-.2s-.2-.2-.2-.4-.2-.2-.2-.4-.2-.2-.2-.4-.2-.2-.2-.4c0 0 0-.2-.2-.2l-.2-.2c-.2 0-.2-.2-.4-.2l-.2-.2c0-.2-.2-.2-.2-.2 0-.2-.2-.2-.2-.2h-.2l-5.3-4.6.2-1.3-.6-3.2.6-1.3v-4.6l-5.7 5.2-.2-.2 17-20.1-.2-.4-5-1v-.2h9c1 1.1 2.9 1.5 4.4 1.1v-.2l-1.7-2.9s.4-.4.8-.6c.8-.4 1.3-.2 2.1.8.6 1.1 1 2.3.2 3.1l.2.2c.6-.2 2.1-.4 3.1-1.7 1-1.3 1-3.2-.4-4.8l-3.1-3.1c.2-2.3-1-4.2-3.2-5.2-4.8-1.9-8.4-3.2-8.4-3.2h-10.2l-1.7.2.2-.2h1.5l10-1.1 3.4-3.1s12.6-5 13.2-5.2c1-.4 1.5-1 1.9-1.9 1.7-4.8 6.9-18.7 6.9-18.7l16.2-21.8-.2-.2-10.7 7.6-.2-.2 4.6-9-.2-.2-6.9 9.9h-.2l.8-9.9h-.2l-2.3 9.5.2.6h-.4l.1-.6-4-9.5h-.2l3.1 12-.4 5.7h-.2l-.6-5-7-11.9-.2.2 5.7 12.8.4 9.5h-.2l-1.3-8.8-9.4-11.8-.2.2 8 12.4.6 13h-.2l-1.7-12.4-10.5-10.9-.2.2 8.8 11.6 1 14.9h-.2l-2.5-14.3-10.9-9.4-.2.2 9.4 10.1 1.5 15.7h-.2l-3.2-14.7-11.1-7.4-.2.2 9.4 8.4 2.5 15.5h-.2l-4-14.5-10.5-5.7-.2.2 9 6.5 2.9 14.9h-.2l-4.8-13.7-9.7-3.6-.2.2 8.2 4.6 3.4 13.7h-.2l-5.2-12.2-9.4-1.7v.2l7.6 2.7 4 12-.2.2-5.8-10.4-7.8-.6v.2l6.1 1.9 4.6 9.7-.2.2-6.3-7.8-7.1.4v.2l5.5 1 5.2 7.4-.2.2-6.7-5.5-7.4 1.7v.2h6.1l5.7 5.3-.2.2-7.3-2.7-7.8 1.1v.3l7.1.2 5.9 3.8v.2l-6.5-2.3-10.5 1.9v.2l9.9-.2 6.1 2.9v.2l-6.3-1.5-16 2.7v.2l12.6 1v.2l-10.1 1.7v.2l6.9.4v.2l-7.8 2.1 3.4 4.4-.2.2-7.6-6.7-19.7-27.3-18-9.2-14.1-12.7L37.9 27h-.2l1.5 13.4 6.9 11.1-.2.2-10.1-8.4L31 34h-.2l1.7 10.9L36 55l-.2.2-8-6.5-4.2-6.1-.2.2 1.9 8.4 5.2 7.4-.2.2-2-1.2 8.7 7.1 20.4 5.5-.2.4-21-4.6-8.6-8.6.1-.1-5.5-3.1-3.4-4.4-.2.2 2.3 6.5 3.6 4.6-.2.2-3.6-.8-.2.2 7.8 7.3v.2l-6.7-.4v.4l9.7 5.9v.2l-4.3.4v.2l11.3 4.2v.2l-4.4 1.5v.2L61 82.9v.2l-15.1.2-.2 3.1 18.9-.4v.2L51 87.7l-.6 3.6 18.3-2.5v.2l-14.3 3.2-.2 4.2 18.9-5.2v.2l-15.5 6.1v3.8l19.1-8 .2.2-15.5 8.2.6 4 18.7-9.5.2.2-15.3 9.7.8 3.4 18-9.9.2.2-13.9 9.4 1.3 3.6 14.9-8.8.2.2-9.7 7.3 1.7 3.4 7.3-4.4.2.2-2.7 2.3 1.3 2.7c.4-.2 1-.4 1.5-.6.8-.2 1.5-.4 2.3-.8.6 0 1-.2 1.3-.4.2 0 .4-.2.6-.2.2-.2.4-.2.6-.4.4-.2.8-.4 1.1-.8l.2-.2.2-.2c.2 0 .2-.2.4-.4s.2-.4.4-.6.2-.4.4-.6c.2-.2.2-.4.4-.6 0 0 .2-.2.2-.4.2-.4.4-.8.4-1 0-.4.2-.6.2-.8.2-.2.2-.2.2-.4v-.2h.2v.6c0 .2-.2.6-.2.8-.2.4-.2.6-.4 1 0 .2-.2.4-.2.6 0 .2-.2.4-.2.6-.2.2-.2.4-.4.6s-.2.4-.4.6c0 .2-.2.4-.4.6l-.2.2-.2.2c-.4.4-.8.6-1.1 1-.2.2-.4.2-.6.4s-.4.2-.6.4c-.6.2-1 .4-1.3.6-1 .4-2.3 1-2.3 1l-20.8 7.8L53 145.3l.8.6 15.1-17.6.2.2-9 13.2 5.5-1 8.4-12.2.2.2-6.1 12 5.2-.4 5.7-11.5h.2l-3.8 11.3 5.3-.4 3.2-10.9h.2l-1.9 10.7 5.3-1.1 1.1-9.7h.2v9.2l4-2.3-.6-7.1h.2l1.3 6.5 1.3.8 1 2.9 1.5.6 3.2 2.5 1.1 1v.2l-2.1-1c-12.8 3.4-22.9 6.7-22.9 6.7 2.1 1.1 5 2.7 7.8 4.4 1.3.6 2.7 1.3 3.8 2.1.6.4 1.1.6 1.7 1 .2 0 .2.2.4.2 0 .2.2.2.2.2h.2c.2.2.6.4.8.6.4.4.6 1 .8 1.3v1.3c0 .4-.2.6-.2.8l-.2.2-.2-.2v-.2c.2-.2.2-.4.2-.8s0-.8-.2-1.1-.4-.8-.8-1.1c-.4-.2-.6-.2-.8-.4h-.4s-.2-.2-.4-.2c-.6-.2-1.3-.6-1.9-.8-1.3-.6-2.7-1.1-4-1.7-1-.4-1.9-.8-2.7-1.1-1.9.6-4.8 1.5-5.9 1.9-2.5 1-2.5 4.2 0 5.2 4.2 1.5 6.1 2.3 10.9 4 3.1 1 5.3.8 8-.6 1.9-1 5.5-2.5 9.5-4.4 6.7-3.6 16.2-11.3 16.2-11.3l.2.2-7.4 7.1c5-2.3 9.9-4.4 13.2-5.7 6.1-3.1 11.1-6.7 11.1-6.7l.2.2-5.2 4.6c5.7-1 15.3-1.9 20.4-1.9 7.3-.3 7.5-6.2 3.8-8.1zm-15.8-40.5c.8 1 1.7 1.7 2.7 2.7.2.2.4.2.4.4.2 0 .2.2.2.2.2 0 .2.2.2.2s.2.2.2.4c.2 0 .2.2.2.4v.8c0 .2-.2.2-.2.4-.2 0-.2.2-.2.2l-.2.2-.2-.2v-1.6c0-.2-.2-.2-.2-.4s-.2-.2-.2-.4 0-.2-.2-.4c-.2 0-.2-.2-.2.2-1-.8-2.1-1.5-3.1-2.3l.8-.8zm-4.8-1.5v-.4c0-.2 0-.4.2-.6l.2-.2c0-.2.2-.2.2-.2 0-.2.2-.2.2-.2h.2l.2.4-.2.2v1h.8v-.6l.2-.2s.2 0 .2.2v.6c0 .2 0 .4-.2.6s-.4.4-.6.4h-.8c-.2 0-.4-.2-.6-.2l-.2-.2-.2-.2c-.2 0-.2-.2-.2-.2 0-.2-.2-.4-.2-.4l-.2-.4c.1-.2.1-.4 1 .6zm-1.5 4.6c0-.2 0-.4.2-.6l.2-.2c.2 0 .4-.2.6-.2h1.2c0 .2.2.2.2.2 0 .2.2.2.2.2l.2.2.2.2v.4l-.2.2s0-.2-.2-.2H135l-.2.2-.2.2-.2.2v1.4l-.2.2-.2-.2v-.9l-.2-.8v-.5zM83.4 122l-1.7 1.3-.2-.2.4-.8-1-.4v-.2h2.5v.3zm6.3 0-1.7 1.3-.2-.2.4-.8-1-.4v-.2h2.5v.3zm-.4 38.8L87 160c-.8-.2-1.5-.6-2.3-.8l-4.6-1.5c-.4-.2-.6-.4-.4-.8 0-.2.2-.4.4-.4l4.8-1.3v.2l-3.1 1.7 3.2 1.3c.8.4 1.5.6 1.9 1.1l2.3 1v.3zm27.7-22.7c-1.5.4-3.2.8-4.8 1.1 0 0 .2.2.4.2s.2 0 .4.2l.4.4c.2 0 .4.2.4.4 0 0 .2.2.2.4.2 0 .2.2.2.4v1.2h-.2v-.4c-.2 0-.2 0-.2-.2s-.2-.2-.2-.4-.2-.2-.2-.4-.2-.2-.2-.4-.2-.2-.2-.4c0 0 0-.2-.2-.2l-.2-.2c-.2 0-.2-.2-.4-.2l-.2-.2c0-.2-.2-.2-.2-.2 0-.2-.2-.2-.2-.2-.6 0-1.1.2-1.7.4 0 0 .2.2.4.2s.2 0 .4.2l.4.4c.2 0 .4.2.4.4 0 0 .2.2.2.4.2 0 .2.2.2.4v1.2h-.2v-.4c-.2 0-.2-.2-.2-.2 0-.2-.2-.2-.2-.4s-.2-.2-.2-.4-.2-.2-.2-.4-.2-.2-.2-.4c0 0 0-.2-.2-.2l-.2-.2c-.2 0-.2-.2-.4-.2l-.2-.2c0-.2-.2-.2-.2-.2 0-.2-.2-.2-.2-.2h-.2l-3.1-3.6-1.5-8.6.4-.2 5.9 7.3.8 1.1 5.4 2.9zm-8.2 4.4c0-.2-.2-.2-.2-.4s-.2-.2-.2-.4-.2-.2-.2-.4-.2-.2-.2-.4l-.2-.2-.2-.2c-.2 0-.2-.2-.4-.2s-.2-.2-.4-.2l-.4.2c0-.2-.2-.2-.2-.2h-.2v-.1h1.2s.2.2.4.2.2 0 .4.2l.4.4.2.2s.2 0 .2.2c0 0 .2.2.2.4.2 0 .2.2.2.4v1.2h-.2v-.4c-.2-.1-.2-.1-.2-.3zm.2-29.1v-.2l4.2-1.3.2.2-2.5 3.6-.2-.2.4-1.9-2.1-.2zm.3 8.1.2.2-1.5 1.7-.4-.2.4-1-1-.2v-.2l2.3-.3zm-4.5-2.1h-.2l.4-1.5-1.5-.4v-.2l3.4-.8.2.2-2.3 2.7zm9.1 1.1-.2-.2.4-1.1-1.1-.4v-.2l2.7-.4.2.2-2 2.1zm4.4-5.2-.2-.2.4-1.1-1.1-.4v-.2l2.7-.4.2.2-2 2.1zm3.5-11 .6-1.1-1.1-.4v-.2l2.9-.2v.2l-2.1 1.9-.3-.2zm1.1 5.9-.2-.2.4-1-1-.2-.2-.2 2.3-.4.2.2-1.5 1.8zm2.7-18.3h2.3v.1l-1.9 1.3.6-1-1-.4zm-1.2 4.2-2.9 2.1-.2-.2.8-1.3-1.5-.6.2-.2h3.6v.2zm-5.1-5.6h2.9v.2l-2.5 1.5.8-1-1.1-.6v-.1zm-.4 16.4-2.3 2.7-.2-.2.4-1.5-1.5-.4 3.4-.8.2.2zm-.4-7 .2.2-2.9 3.2-.2-.2.6-1.9-1.9-.4v-.2l4.2-.7zm-1.5-5.4-2.9 2.1-.2-.2.8-1.3-1.5-.6.2-.2h3.6v.2zm-5.4-4.2h2.3v.2l-1.9 1.3.6-1-1-.4v-.1zm.2 15.1-2.7 3.6v-.2l.4-1.9-2.1-.2v-.2l4.2-1.3.2.2zm-1.5-6.5.2.2-3.1 3.2-.2-.2.8-1.9-1.9-.6-.2-.2 4.4-.5zm-5.2-5.5h3.6v.2l-3.1 2.1 1-1.5-1.5-.6v-.2zm-.3 17.5-2.1 2.9-.2-.2.4-1.5-1.5-.2-.2-.2 3.4-1 .2.2zm-.8-5.7-2.3 2.7-.2-.2.4-1.5-1.5-.4 3.4-.8.2.2zm-4.4-5.1 2.9-.4.2.2-1.9 2.1-.2-.2.2-1.1-1.1-.4v-.2zM39.4 61.9l-7.6-9.2.2-.2 8.6 8L58 66.1l-.2.4-18.4-4.6zm-10.6 6.7.2-.4 28.5 5.9-.2.4-21-3.2-7.5-2.7zm30.5 9.9-14.9-1.3-7.6-2.3v-.4l22.5 3.6v.4zm.8-15.7-15.3-5-6.3-8.6.2-.2 7.4 7.6 14.1 5.7-.1.5zm-8.6-7.4-7.1-11.6.4-.2 8 10.7L66 60.5l-.2.4-14.3-5.5zm9.9 13v-3.2h.4l.4 1.9 6.7-3.4v.3l-7.3 4.6-.2-.2zm1.5 5.1-.2-.2v-3.2h.4l.4 1.9 8.8-4.6.2.2-9.6 5.9zm2.5 4.6-.2-.2v-3.2h.4l.4 1.9 9.4-5v.2l-10 6.3zm3.6 3.8-.2-.2v-3.2h.4l.4 1.9 9.2-4.8v.4L69 81.9zm4.8 3.5-.2-.2V82h.4l.4 1.9 8-4.2.2.4-8.8 5.3zm5 3-.2-.2V85h.4l.4 1.9 6.7-3.4v.4l-7.3 4.5zm5 3.1-.2-.2v-3.1h.4l.4 1.7 4.8-2.3v.4l-5.4 3.5zm4.2 3h-.6l.2-2.7h.4l.4 1.3 3.4-1.5.2.2-4 2.7zm2.8 3.3-.2-.2.2-2.3h.4l.2 1.1 4.2-1.9v.4l-4.8 2.9zm1.5 3.4-.2-.2.4-1.9h.4l.2.8 2.5-1.3.2.2-3.5 2.4zm1 4-.2-.2.4-1.9h.4v.8l1.7-.8.2.2-2.5 1.9zm-1 14.3.4-.8-1-.4v-.2H94l.2.2-1.7 1.3-.2-.1zm3.9 3.9-1.7 1.3-.2-.2.4-.8-1-.4v-.2h2.5v.3zm.7-7.1-.2-.2.6-1.1-1.1-.4v-.2H99l-2.1 1.9zm1.9 5-.2-.2.6-1.1-1.1-.6v-.2h2.9l.2.4-2.4 1.7zm2.7 4-.2-.2.6-1-1-.4v-.2h2.3v.4l-1.7 1.4zm-9.5 24c-.2 0-.6.2-.8.2l-.6.2c-.2 0-.4.2-.6.2-.4 0-.8.2-.8.2l-.2-.4.8-.4.8-.4h.2c.2-.2.4-.2.8-.4.8-.4 1.5-.6 2.5-1l.4-.2.6-.2c.8-.4 1.7-.8 2.5-1 1.1-.4 2.1-.8 3.1-1l.4-.2c.4-.2.6-.4 1-.4l1.3-.4c.6-.2 1.1-.2 1.5-.4h.4c.6-.2.8-.2.8-.2l.2.4s-.4 0-.8.2c-.2 0-.4.2-.6.2-.4.2-.8.4-1.3.6l-1.3.4-.4.2c-.4.2-.8.2-1.1.4-1 .2-1.9.6-3.1 1l-.8.2c-.8.2-1.7.4-1.9 1.1-.4.2-.8.2-1.1.4-1 .4-1.4.5-1.9.7zm24.2-4.7c-.2 0-.4 0-.8.2-.6.2-1.1.4-1.9.6l-.4.2c-.4 0-1 .2-1.3.4-.6.4-1.3.6-1.9.8-1.3.6-2.7 1-4.2 1.5-.8.2-1.7.6-2.7 1-.6.2-1 .4-1.5.6-.4.2-1 .4-1.3.6l-.6.2c-.4 0-.8.2-1.1.4l-.6.2c-.8.4-1.3.6-1.9.8-.4 0-.6.2-.8.2-.6.2-1 .4-1 .4l-.2-.4s.4-.2 1-.4c.2-.2.6-.2.8-.4.6-.2 1.1-.6 1.9-.8l.4-.2c.4-.2.8-.4 1.3-.6.2 0 .4-.2.6-.2.4-.2 1-.4 1.3-.6.6-.2 1-.4 1.5-.6.8-.2 1.7-.6 2.7-1 1.3-.6 2.9-1.1 4.2-1.5l1-.4c.4-.2.6-.4 1-.4.6-.2 1.1-.4 1.7-.6.8-.2 1.3-.4 1.9-.6.2 0 .6-.2.8-.2h1.1l.2.4-1.2.4zm6.3-8.1h.3c.1-.5.1-.4.3-.4 0 0 .2 0 .2.2l.2.2h.2s.2.2.4.2.2 0 .4.2c.2 0 .4 0 .4.2.2 0 .4.2.4.4 0 0 .2.2.2.4.2 0 .2.2.2.4v1.2h-.2v-.5c-.2 0-.2 0-.2-.2s-.2-.2-.2-.4-.2-.2-.2-.4-.2-.2-.2-.4-.2-.2-.2-.4l-.2-.2-.2-.2-.2-.2c-.2 0-.2-.2-.4-.2h-.7c0 .1 0 .2-.1.4l-.2-.2v-.1zm7.3 4.2s-.2.2-.4.2h-.2c-.2 0-.6.2-.8.2-.4.2-.8.2-1.3.4-.4.2-1 .2-1.5.4h-.2c-.4.2-1 .4-1.3.4s-1 .2-1.3.2c-.4.2-.6.2-.8.2h-.6l-.2-.6s.2-.2.4-.2h.2c.2 0 .4-.2.8-.2.8-.2 1.9-.6 2.9-.8.4-.2 1-.4 1.5-.4.4 0 1-.2 1.3-.2h1.6v.4zm3.6-3.8s0-.2.4-.2h.4c.4 0 .6-.2 1-.2 1.1-.2 2.5-.6 3.8-.8.6-.2 1.3-.2 1.9-.4.6 0 1.1-.2 1.7-.2h.2c.4-.2.8-.2 1-.2h1v.4s0 .2-.4.2h-.4c-.4 0-.6.2-1 .2-.2 0-.6.2-1 .2-.2 0-.6.2-.8.2-.6.2-1.1.2-1.7.4h-.4c-1.3.2-2.7.4-3.8.6-.4.2-.8.2-1 .2h-1v-.4zm16.2 1-.8.2c-.2.2-.4.2-.6.2-.4 0-.8.2-1.1.2-.2.2-.6.2-.8.2-.6 0-1.1.2-1.7.2l-1.3.2h-.3c-.4 0-.8.2-1.1.2s-.8.2-1.1.2c-.6 0-1.1 0-1.7.2-.4.2-.6.2-1 .2h-.4c-.4 0-.8.2-1.1.2-.4.2-.8.2-1.1.2H134v-.4l.8-.2c.2-.2.4-.2.6-.2.2 0 .8-.2 1.1-.2.2-.2.4-.2.6-.2l.6-.2c.2-.2.4-.2.6-.2.2 0 .6-.2.8-.2.4 0 .8-.2 1.3-.2.6 0 1-.2 1.5-.2 0 0 1.1-.2 1.5 0l1.3-.2c.6 0 1.1-.2 1.7-.2h.8c.6-.2 1.1-.2 1.5-.2h1v.4z" style="fill-rule:evenodd;clip-rule:evenodd;fill:#fff"/></svg>
